<svg width="500" height="350" viewBox="0 0 500 350" xmlns="http://www.w3.org/2000/svg" xmlns:xlink="http://www.w3.org/1999/xlink">
    <path id="motionPath" d="m112.49 25.481c-13.8 0.1-33.3 0.4-44.8 9.2-14 10.7-26.2 29.2-31.9 45.6-7.8 22.2-13.5 48-3.5 70.2 12.8 28.2 47.1 43.6 68.8 63.6 19.6 18.1 43.4 26.1 69.5 29.4 21.7 2.7 43.6 3.3 65.4 4.7 19.4 1.3 33.9-7.7 51.2-15.3 24.4-10.7 38.2-44 40.9-68.9 1.8-16.7 3.4-34.9-10.3-46.5-9.5-8-22.6-8.1-33.2-14.1-13.7-7.7-27.4-17.2-39.7-26.8-5.4-4.2-10.4-8.8-15.8-12.9-4.5-3.5-8.1-8.3-13.2-11-6.2-3.3-14.3-5.4-20.9-8.2-5-2.1-9.5-5.2-14.3-7.6-6.5-3.3-12.1-7.4-19.3-8.9-6-1.2-12.4-1.3-18.6-1.5-10.2-0.3-20.2-1.5-30.3-1" fill="#fbb606" stroke="#" stroke-miterlimit="10" style="fill:#fbb606"/>
    <g id="layer1">
     <g id="g1440" transform="matrix(1.7111 0 0 1.7897 -606.54 -48.609)" style="stroke-width:.57144">
      <path id="path1456" d="m407.05 98.176c-2.6777-1.9865-3.2942-5.2254-1.7829-9.3667 1.0913-2.9905 2.368-4.5212 4.6082-5.5246 3.1218-1.3984 6.903 0.07637 8.2682 3.2249 0.90132 2.0788 0.85055 4.0502-0.1768 6.8655-0.77014 2.1104-1.4468 3.2599-2.5529 4.3366-1.0464 1.0186-3.0537 1.8026-4.451 1.7386-1.1026-0.05055-3.1716-0.72428-3.9127-1.2741zm4.2965-2.0742c1.1451-0.29918 2.0084-1.3258 2.8736-3.4171 1.3679-3.3062 1.1658-5.581-0.56988-6.4163-1.0929-0.52595-2.0267-0.29502-3.1226 0.77219-0.7955 0.77468-0.93071 1.023-1.6756 3.077-0.70896 1.955-0.7991 2.3719-0.72117 3.3351 0.16022 1.9803 1.5122 3.0942 3.2155 2.6492zm-1.2476-4.0967c-0.45717-0.71596-0.35246-1.5537 0.26332-2.1068 0.53533-0.48085 0.89035-0.52397 1.7453-0.21198 1.1917 0.43489 1.2956 2.2293 0.16665 2.8781-0.6883 0.39555-1.7379 0.12567-2.1753-0.55933zm38.316 17.818 0.65-1.7812 5.2748 1.8126 2.411-6.457c1.326-3.5514 2.345-6.4811 2.2644-6.5105-0.0807-0.02943-1.2799 0.17049-2.6649 0.44427-1.3851 0.27378-2.5895 0.47179-2.6766 0.44002-0.0871-0.03177-0.34196-0.90667-0.56643-1.9442-0.34187-1.5802-0.35367-1.9079-0.0726-2.0185 0.18453-0.07261 2.1061-0.45661 4.2701-0.85333l3.9346-0.7213 4.4534 1.6252-6.39 17.806 1.9574 0.77176 1.9574 0.77177-0.64958 1.7801-0.64958 1.78-14.153-5.1649z" style="fill:#fdfdfd;stroke-width:.57144"/>
      <path id="path1454" d="m408.3 98.881c0.29438 0.0609 0.70755 0.21292 0.91816 0.33781 0.21061 0.1249-0.0303 0.07506-0.53524-0.11074-0.50496-0.18589-0.6773-0.28799-0.38292-0.22708zm-3.3906-3.1666-0.32803-0.77749 0.40594 0.74259c0.22327 0.40843 0.39677 0.76774 0.38555 0.79848-0.0503 0.13799-0.15769-0.03884-0.46346-0.76358zm8.7588 3.1457c0.46841-0.21868 0.89302-0.3825 0.94357-0.36405 0.0505 0.01845-0.29135 0.21245-0.75976 0.43113-0.46842 0.21868-0.89303 0.3825-0.94358 0.36405-0.0505-0.01845 0.29135-0.21245 0.75977-0.43113zm34.614 10.86 0.66191-1.9342 5.3259 1.9435 4.829-12.911-4.7651 13.036-5.262-1.808-1.4516 3.6083 0.66191-1.9342zm14.28 5.2685 0.64958-1.7801-3.91-1.557 4.1634 1.4334-0.68438 1.8754c-0.3764 1.0315-0.72573 1.8603-0.77628 1.8419-0.0505-0.0184 0.20041-0.83456 0.55768-1.8136zm-52.871-19.034c0.15151-0.0032 0.30774 0.06102 0.34716 0.14266 0.0394 0.08164-0.0846 0.08424-0.27548 0.0058-0.21101-0.08671-0.23912-0.14493-0.0717-0.14844zm1.813-0.0097c0.25467-0.1297 0.5044-0.22072 0.55495-0.20228 0.0505 0.01845-0.11647 0.13965-0.37114 0.26935-0.25468 0.1297-0.50441 0.22072-0.55496 0.20228-0.0505-0.01845 0.11647-0.13966 0.37115-0.26935zm-3.1912-1.3163c-0.12525-0.36672-0.11645-0.37066 0.094-0.04211 0.12772 0.19938 0.22114 0.39286 0.20761 0.42995-0.0537 0.147-0.17006-0.0027-0.30162-0.38784zm8.5827 1.1418c0.0847-0.20485 0.14375-0.23128 0.15043-0.06739 6e-3 0.14831-0.0567 0.29998-0.13943 0.33704-0.0827 0.03706-0.0877-0.08428-0.011-0.26965zm-12.434-4.7398c0.0848-0.20485 0.14375-0.23128 0.15043-0.06739 6e-3 0.14831-0.0567 0.29998-0.13943 0.33704-0.0827 0.03706-0.0877-0.08428-0.011-0.26965zm3.6762 1.3415c0.0847-0.20485 0.14375-0.23128 0.15043-0.06739 6e-3 0.14831-0.0567 0.29998-0.13943 0.33704-0.0827 0.03706-0.0877-0.08428-0.011-0.26966zm5.6723 1.0748c0.1113-0.29334 0.18859-0.37725 0.17178-0.18646-0.0168 0.19079-0.10787 0.43079-0.20236 0.53334-0.0945 0.10255-0.0807-0.05355 0.0306-0.34689zm-4.997-3.3415c0.30471-0.835 0.46103-1.165 0.34737-0.73342s-0.36297 1.1148-0.55402 1.5182c-0.19106 0.40338-0.0981 0.05023 0.20665-0.78477zm0.97543 1.6209c-0.12525-0.36672-0.11645-0.37067 0.094-0.04211 0.12772 0.19938 0.22114 0.39286 0.20761 0.42995-0.0537 0.147-0.17006-0.0027-0.30162-0.38784zm8.2487 1.644c0.32208-0.88432 0.49336-1.2572 0.38063-0.82858-0.11272 0.4286-0.37624 1.1521-0.5855 1.6079-0.20935 0.45572-0.11712 0.10504 0.20495-0.77928zm-12.872-4.6971c0.25168-0.68738 0.37965-0.93465 0.28421-0.54956-0.0954 0.38509-0.30142 0.94747-0.45772 1.2497-0.15631 0.30226-0.0782-0.01282 0.17353-0.70017zm7.8536 2.9671c0.12547-0.34382 0.21462-0.47068 0.19812-0.28189-0.0165 0.18878-0.11916 0.47009-0.22812 0.62514-0.10897 0.15504-0.0955 5.81e-4 0.03-0.34324zm-0.11227-1.3059-0.2035-0.52965 0.28941 0.49117c0.27197 0.46158 0.32811 0.64495 0.18101 0.59127-0.0349-0.01273-0.15499-0.26149-0.26692-0.55279zm1.881 0.43341c0.11129-0.29334 0.18859-0.37725 0.17177-0.18646-0.0168 0.19079-0.10787 0.43079-0.20235 0.53334-0.0945 0.10255-0.0807-0.05355 0.0306-0.34689zm-3.0334-1.3484c0.19536 0.01998 0.44242 0.11351 0.54901 0.20786 0.10659 0.09434-0.0533 0.07799-0.35521-0.03632-0.30196-0.11432-0.38917-0.1915-0.19381-0.17152zm-5.6633-2.854c0.0847-0.20485 0.14375-0.23128 0.15043-0.06739 6e-3 0.14831-0.0567 0.29998-0.13943 0.33704-0.0827 0.03706-0.0877-0.08428-0.011-0.26965zm3.6762 1.3415c0.0847-0.20485 0.14375-0.23128 0.15043-0.06739 6e-3 0.14831-0.0567 0.29998-0.13943 0.33704-0.0827 0.03706-0.0877-0.08428-0.011-0.26965zm8.888 3.0411c0.0847-0.20485 0.14375-0.23128 0.15043-0.06739 6e-3 0.14831-0.0567 0.29998-0.13943 0.33704-0.0827 0.03706-0.0877-0.08428-0.011-0.26965zm-7.1475-4.7166c0.25467-0.1297 0.5044-0.22072 0.55495-0.20228 0.0506 0.01845-0.11647 0.13965-0.37114 0.26935-0.25468 0.1297-0.50441 0.22072-0.55496 0.20228-0.0506-0.01845 0.11647-0.13965 0.37115-0.26935zm1.4004-0.23442c0.15151-0.0032 0.30773 0.06102 0.34716 0.14266 0.0394 0.08164-0.0846 0.08424-0.27549 0.0058-0.211-0.08671-0.23911-0.14493-0.0717-0.14843zm5.1416 0.24358-0.26637-0.65379 0.34746 0.61746c0.32476 0.57712 0.3893 0.76457 0.24514 0.71196-0.0329-0.01201-0.17973-0.31605-0.32623-0.67564zm-8.7146-2.9024c0.0135-0.03709 0.20961-0.12492 0.43573-0.19518 0.3726-0.11578 0.3768-0.10709 0.0448 0.09276-0.3487 0.20989-0.53417 0.24943-0.48052 0.10242zm3.9458-0.64588c0.15151-0.0032 0.30773 0.06102 0.34716 0.14266 0.0394 0.08164-0.0846 0.08424-0.27549 0.0058-0.211-0.08671-0.23911-0.14493-0.0717-0.14844zm2.2057 0.80492c0.15152-0.0032 0.30774 0.06102 0.34716 0.14266 0.0394 0.08164-0.0846 0.08424-0.27548 0.0058-0.211-0.08671-0.23911-0.14493-0.0717-0.14843zm46.898 9.0066c0.64457 0.1957 1.6785 0.573 2.2976 0.83845s0.0917 0.10534-1.172-0.35581c-1.2637-0.46115-1.7702-0.67834-1.1257-0.48264z" style="fill:#fee099;stroke-width:.57144"/>
      <path id="path1450" d="m398.39 97.356c0.0135-0.03709 0.20961-0.12492 0.43573-0.19518 0.37261-0.11578 0.3768-0.10709 0.0448 0.09276-0.3487 0.20989-0.53417 0.24943-0.48052 0.10242zm85.549 24.414c0.25468-0.1297 0.50441-0.22072 0.55495-0.20227 0.0505 0.0184-0.11646 0.13965-0.37114 0.26935-0.25468 0.12969-0.50441 0.22072-0.55496 0.20227-0.0505-0.0184 0.11647-0.13965 0.37115-0.26935zm-23.624-13.048c0.90618-2.5951 1.0491-2.9014 1.2209-2.6162 0.21682 0.35989 0.21535 0.57497-2e-3 0.30612-0.0876-0.10836-0.53233 0.83818-1.1925 2.5382l-1.0527 2.711zm43.86 15.069c0.11129-0.29334 0.18859-0.37724 0.17178-0.18646-0.0168 0.19079-0.10787 0.4308-0.20236 0.53335-0.0945 0.10255-0.0807-0.0536 0.0306-0.34689zm-5.3047-2.037c0.0896-0.24559 0.168-0.33083 0.17418-0.18943 6e-3 0.1414-0.0671 0.34234-0.16295 0.44652-0.0958 0.10419-0.10085-0.0115-0.0112-0.25709zm-19.318-9.2237c0.69494 0.21466 1.8116 0.62214 2.4814 0.90553s0.10127 0.10776-1.2635-0.39028c-1.3648-0.49804-1.9128-0.7299-1.2179-0.51525zm17.204 5.08c0.14445-3e-3 0.35123 0.072 0.45952 0.16769 0.10829 0.0957-0.01 0.0985-0.26264 6e-3 -0.25273-0.0922-0.34133-0.17051-0.19688-0.17394zm16.359 5.9698c0.14445-3e-3 0.35124 0.072 0.45953 0.16769 0.10828 0.0957-0.01 0.0985-0.26264 6e-3 -0.25274-0.0922-0.34134-0.1705-0.19689-0.17394zm-32.012-12.698c0.15152-3e-3 0.30774 0.061 0.34716 0.14266 0.0394 0.0816-0.0846 0.0842-0.27548 6e-3 -0.211-0.0867-0.23911-0.14493-0.0717-0.14843zm-16.864-12.796c0.86048-2.3576 1.2296-3.2879 0.82024-2.0672s-1.1134 3.1496-1.5645 4.2866c-0.45113 1.137-0.1162 0.13826 0.74428-2.2194z" style="fill:#aa8221;stroke-width:.57144"/>
      <path id="path1448" d="m490 133.56c0.19537 0.02 0.44242 0.11351 0.54901 0.20785 0.10659 0.0943-0.0532 0.078-0.35521-0.0363-0.30196-0.11432-0.38917-0.1915-0.1938-0.17152zm1.1029 0.40246c0.19536 0.02 0.44242 0.11351 0.54901 0.20785 0.10659 0.0943-0.0533 0.078-0.35521-0.0363-0.30196-0.11432-0.38917-0.1915-0.19381-0.17152zm-99.275-37.04c0.243 0.04043 0.61522 0.17626 0.82714 0.30184 0.21193 0.12558 0.0131 0.0925-0.44181-0.07352-0.45493-0.16601-0.62833-0.26876-0.38533-0.22833zm93.555 32.816-0.2035-0.52965 0.28941 0.49117c0.27197 0.46158 0.32811 0.64495 0.18101 0.59127-0.0349-0.0127-0.15499-0.26148-0.26692-0.55279zm-92.141-38.367c0.15152-0.0032 0.30774 0.06102 0.34716 0.14266 0.0394 0.08164-0.0845 0.08424-0.27548 0.0058-0.211-0.08671-0.23911-0.14493-0.0717-0.14844zm1.8644 0.13501c0.0135-0.03709 0.20962-0.12492 0.43573-0.19518 0.37261-0.11578 0.37681-0.10709 0.0448 0.09276-0.34869 0.20989-0.53416 0.24943-0.48052 0.10242zm32.854 7.8152c0.77074-2.1121 1.1126-2.9664 0.75976-1.8985-0.35288 1.0679-0.98348 2.7959-1.4014 3.8401-0.41786 1.0442-0.12915 0.17045 0.64159-1.9416zm4.7922 1.1416c0.87828-2.4068 1.2636-3.3819 0.85626-2.1669-0.40735 1.215-1.1259 3.1842-1.5969 4.3759-0.47094 1.1918-0.13766 0.1977 0.74063-2.2091zm2.2235-1.5161c1.2905-3.5365 1.8522-4.9996 1.2483-3.2513-0.60391 1.7483-1.6598 4.6418-2.3463 6.43-0.68657 1.7882-0.19246 0.35783 1.098-3.1787zm3.6453 4.265c0.77073-2.1121 1.1126-2.9664 0.75975-1.8985-0.35287 1.0679-0.98347 2.796-1.4013 3.8401s-0.12915 0.17044 0.64159-1.9416zm-48.17-14.58c0.0835-0.06409 0.21202-0.04219 0.2855 0.04867 0.18779 0.23219 0.14016 0.27863-0.16977 0.16553-0.1472-0.05372-0.19928-0.1501-0.11573-0.2142zm122.2 44.351c0.0135-0.0371 0.20961-0.12492 0.43573-0.19518 0.3726-0.11578 0.3768-0.10709 0.0448 0.0928-0.3487 0.20989-0.53417 0.24943-0.48052 0.10242zm-112.47-51.693c1.7028-4.6662 2.4231-6.5664 1.6008-4.2227-0.82238 2.3437-2.2156 6.1615-3.096 8.484s-0.20757 0.40494 1.4952-4.2612zm81.778 37.052c0.0135-0.0371 0.20962-0.12492 0.43573-0.19518 0.37261-0.11578 0.37681-0.10709 0.0448 0.0928-0.34869 0.20989-0.53416 0.24943-0.48052 0.10242zm-2.311-2.9421c1.3506 0.4583 3.5426 1.2582 4.871 1.7775 1.3284 0.51933 0.2233 0.14436-2.4557-0.83328-2.679-0.97763-3.7659-1.4026-2.4152-0.94424zm35.537 12.394c0.0848-0.20486 0.14375-0.23129 0.15043-0.0674 6e-3 0.14831-0.0567 0.29998-0.13943 0.33704-0.0827 0.0371-0.0877-0.0843-0.011-0.26965zm-22.294-8.5405c0.0848-0.20486 0.14375-0.23128 0.15043-0.0674 6e-3 0.14831-0.0567 0.29998-0.13943 0.33704-0.0827 0.0371-0.0877-0.0843-0.011-0.26965zm-65.249-26.863c0.14445-0.0034 0.35124 0.07203 0.45953 0.16769 0.10829 0.09566-0.01 0.09847-0.26264 0.0062-0.25274-0.09223-0.34134-0.1705-0.19689-0.17393zm15.624 5.7015c0.14445-0.0034 0.35124 0.07203 0.45952 0.16769 0.10829 0.09566-0.01 0.09847-0.26263 0.0062-0.25274-0.09223-0.34134-0.1705-0.19689-0.17393zm6.5086 0.23223-0.20351-0.52965 0.28941 0.49117c0.27197 0.46158 0.32811 0.64495 0.18102 0.59128-0.0349-0.01273-0.155-0.26149-0.26692-0.55279zm-8.0877-3.6092c0.14543-0.3922 0.23406-0.51818 0.19695-0.27996-0.0371 0.23822-0.1561 0.55911-0.26443 0.71308-0.10832 0.15398-0.078-0.04094 0.0675-0.43313zm49.93 18.853c0.0135-0.0371 0.20961-0.12492 0.43573-0.19518 0.37261-0.11578 0.3768-0.10709 0.0448 0.0928-0.34869 0.20989-0.53416 0.24943-0.48052 0.10242zm-65.634-35.157c0.69917 0.2161 1.7744 0.60875 2.3893 0.87253 0.61495 0.26381 0.0429 0.08701-1.2712-0.3929-1.3141-0.47995-1.8173-0.69575-1.1181-0.47966zm95.895 34.59c0.69918 0.21609 1.7744 0.60875 2.3893 0.87252 0.61495 0.26382 0.0429 0.087-1.2712-0.3929-1.3141-0.47995-1.8173-0.69575-1.1181-0.47966z" style="fill:#996f0b;stroke-width:.57144"/>
      <path id="path1446" d="m387.07 92.681c-0.0284-0.12909 2e-3 -0.25863 0.067-0.28786 0.0653-0.02924 0.12238 0.08874 0.12693 0.26218 9e-3 0.36009-0.11669 0.37679-0.19396 0.02568zm101.08 30.88c-0.12525-0.36672-0.11645-0.37066 0.094-0.0421 0.22104 0.34506 0.26488 0.52727 0.1136 0.47206-0.0382-0.0139-0.13159-0.2074-0.20761-0.42995zm10.641-4.3137-0.2035-0.52965 0.2894 0.49117c0.15918 0.27014 0.27929 0.5189 0.26692 0.55279-0.0522 0.14293-0.16158-0.0166-0.35282-0.51431zm-22.43-10.968c0.25468-0.12969 0.50441-0.22072 0.55496-0.20227 0.0505 0.0184-0.11647 0.13965-0.37115 0.26935s-0.50441 0.22072-0.55495 0.20227c-0.0506-0.0184 0.11646-0.13965 0.37114-0.26935zm31.746 11.18c0.25468-0.1297 0.50441-0.22072 0.55496-0.20228 0.0505 0.0185-0.11647 0.13966-0.37115 0.26935-0.25468 0.1297-0.50441 0.22072-0.55495 0.20228-0.0506-0.0185 0.11646-0.13966 0.37114-0.26935zm-33.649-22.347c0.85094 0.27294 2.1743 0.75608 2.9408 1.0736 0.7665 0.31756 0.0703 0.09424-1.5472-0.49626-1.6175-0.59045-2.2446-0.85032-1.3936-0.57738z" style="fill:#694f0e;stroke-width:.57144"/>
      <path id="path1444" d="m494.75 130.09c0.0135-0.0371 0.20961-0.12492 0.43573-0.19518 0.37261-0.11578 0.37681-0.10709 0.0448 0.0928-0.34869 0.20989-0.53416 0.24942-0.48052 0.10242zm-73.797-41.224c2.1688-5.9432 3.0792-8.3661 2.0231-5.3842-1.0561 2.982-2.8306 7.8446-3.9433 10.806s-0.24861 0.52152 1.9202-5.4217zm27.489 17.115c0.91413-2.505 1.314-3.5204 0.88848-2.2563-0.42547 1.264-1.1734 3.3136-1.6621 4.5546-0.48866 1.241-0.14055 0.20677 0.77358-2.2982zm48.194 21.938c0.14543-0.3922 0.23406-0.51818 0.19695-0.27996-0.0371 0.23822-0.1561 0.55911-0.26443 0.71308-0.10832 0.15398-0.078-0.0409 0.0675-0.43312zm16.526 5.5246c0.16132-0.44206 0.26316-0.60982 0.22631-0.37281-0.0368 0.23702-0.16883 0.59871-0.29331 0.80375-0.12447 0.20504-0.0943 0.0111 0.067-0.43094zm8.0977-8.3791c2.1688-5.9432 3.0792-8.3661 2.0231-5.3842s-2.8306 7.8446-3.9433 10.806-0.24861 0.52152 1.9202-5.4217zm-118.96-32.076c0.0896-0.24559 0.16801-0.33083 0.17419-0.18943 6e-3 0.1414-0.0671 0.34234-0.16295 0.44652-0.0958 0.10419-0.10086-0.01151-0.0112-0.2571zm69.423 24.777c-0.12526-0.36672-0.11645-0.37067 0.094-0.0421 0.12771 0.19938 0.22114 0.39286 0.2076 0.42995-0.0536 0.147-0.17006-3e-3 -0.30161-0.38784zm32.73 11.64-0.20351-0.52965 0.28941 0.49117c0.27197 0.46158 0.32811 0.64495 0.18102 0.59128-0.0349-0.0127-0.155-0.26149-0.26692-0.5528zm-31.485-11.894-0.2035-0.52965 0.28941 0.49117c0.27197 0.46158 0.3281 0.64495 0.18101 0.59127-0.0349-0.0127-0.15499-0.26148-0.26692-0.55279zm-8.7995-4.7291c-0.12526-0.36672-0.11646-0.37067 0.094-0.0421 0.12772 0.19938 0.22114 0.39286 0.20761 0.42995-0.0537 0.147-0.17006-3e-3 -0.30161-0.38784zm15.241 5.5753c0.15152-3e-3 0.30774 0.061 0.34716 0.14265 0.0394 0.0816-0.0845 0.0842-0.27548 6e-3 -0.211-0.0867-0.23911-0.14493-0.0717-0.14844zm-2.3536-3.6722c0.0847-0.20485 0.14375-0.23128 0.15043-0.0674 6e-3 0.14831-0.0567 0.29998-0.13943 0.33705-0.0827 0.0371-0.0877-0.0843-0.011-0.26966zm-7.8657-3.1065c-0.12526-0.36672-0.11645-0.37066 0.094-0.0421 0.12771 0.19939 0.22114 0.39287 0.2076 0.42996-0.0536 0.147-0.17006-3e-3 -0.30161-0.38785zm18.01 4.987c0.0847-0.20485 0.14375-0.23128 0.15043-0.0674 6e-3 0.14831-0.0567 0.29998-0.13943 0.33704-0.0827 0.0371-0.0877-0.0843-0.011-0.26965zm-61.751-24.035c0.25468-0.1297 0.50441-0.22072 0.55496-0.20228 0.0506 0.01845-0.11647 0.13966-0.37115 0.26935-0.25467 0.1297-0.5044 0.22072-0.55495 0.20228-0.0505-0.01845 0.11647-0.13965 0.37114-0.26935zm89.698 32.682-0.2035-0.52965 0.28941 0.49117c0.15917 0.27014 0.27929 0.5189 0.26692 0.55279-0.0522 0.14294-0.16158-0.0166-0.35283-0.51431zm-53.142-21.062c0.35903-0.98215 0.52816-1.35 0.376-0.81738-0.15215 0.53262-0.44585 1.3362-0.65271 1.7858-0.2068 0.44956-0.0823 0.0138 0.27666-0.9684zm24.894 7.7182-0.2035-0.52966 0.2894 0.49118c0.15918 0.27014 0.27929 0.5189 0.26692 0.55279-0.0522 0.14293-0.16158-0.0166-0.35282-0.51431zm14.022 4.1048 0.33373-0.536 4.4029 1.588-4.3621-1.4595-0.19353 0.53033c-0.10644 0.29169-0.2658 0.50396-0.35413 0.47173-0.0883-0.0322-0.0104-0.2998 0.17314-0.5946zm-62.429-23.083c0.64457 0.1957 1.6785 0.573 2.2976 0.83845 0.61911 0.26545 0.0917 0.10534-1.172-0.35581-1.2637-0.46115-1.7702-0.67834-1.1257-0.48264zm44.567 15.465c0.15152-3e-3 0.30774 0.061 0.34716 0.14265 0.0394 0.0816-0.0845 0.0842-0.27548 6e-3 -0.211-0.0867-0.23911-0.14492-0.0717-0.14843zm13.234 4.8295c0.15152-3e-3 0.30774 0.061 0.34716 0.14266 0.0394 0.0816-0.0845 0.0842-0.27548 6e-3 -0.211-0.0867-0.23911-0.14493-0.0717-0.14844z" style="fill:#433511;stroke-width:.57144"/>
      <path id="path1442" d="m488.42 132.7c-1.0246-0.61255-2.2625-1.8464-2.7918-2.7827-0.43252-0.76504-0.7955-2.2551-0.57145-2.3458 0.0613-0.0248 1.0001-0.13644 2.0862-0.24802l1.9747-0.20288 0.26841 0.61997c0.91576 2.1153 4.4859 3.2994 6.1172 2.0289 0.53446-0.41624 1.5462-2.1176 1.4177-2.3838-0.0368-0.0761-0.35685-0.0648-0.71131 0.0252-1.082 0.27465-2.212 0.13161-3.9435-0.49919-1.4258-0.51949-1.7879-0.73078-2.6181-1.5284-3.4148-3.2804-2.396-9.3272 1.9629-11.649 2.7491-1.4646 6.9652-0.40846 8.6666 2.171 0.54377 0.82444 0.59495 0.83603 0.83133 0.18828l0.19553-0.53583 4.4371 1.6192-2.7196 7.2551c-2.6472 7.0618-2.7407 7.2782-3.5104 8.1214-1.4102 1.5447-3.7996 2.259-6.3048 1.8847-1.1979-0.17896-3.6967-1.0861-4.7865-1.7377zm8.173-8.7928c1.3487-0.32206 1.8402-0.76777 2.3316-2.1144 0.38473-1.0543 0.40451-1.3159 0.15681-2.0746-0.36504-1.1181-1.1261-1.8075-2.3762-2.1529-1.8544-0.51221-3.4981 0.42607-4.002 2.2844-0.47112 1.7376 0.32762 3.213 2.087 3.855 0.78474 0.28637 1.2382 0.3373 1.8028 0.20249zm-106.6-28.038c-0.9021-0.62446-2.4373-2.3321-2.6788-2.9797-0.14512-0.38914-0.0998-0.45303 1.9643-2.7662l1.2512-1.4022 0.58693 0.89058c1.4148 2.1468 3.4586 2.6845 5.1247 1.3483 0.56411-0.4524 0.72646-0.84229 3.8515-9.2497l3.2626-8.7774 5.685 2.0746-3.1138 8.5281c-3.3541 9.1861-4.2244 11.166-5.4346 12.365-1.4742 1.4601-3.7475 2.0814-6.1364 1.6771-1.4433-0.2443-3.2949-0.96941-4.3625-1.7085zm31.056-6.9668 3.9107-10.717 4.4114 1.6098-3.6616 10.034 0.74457-0.25962c1.008-0.35148 1.7765-0.42418 2.8857-0.27298 1.8044 0.24598 3.994 1.8886 4.7955 3.5977 0.63899 1.3624 0.47791 2.2162-1.3773 7.3l-1.6502 4.5221-4.4114-1.6098 1.4034-3.8459c1.0434-2.8593 1.3926-4.0169 1.3612-4.5126-0.13866-2.1861-2.5075-3.2392-4.3691-1.9422-0.60549 0.42185-0.68157 0.58348-2.0853 4.4301l-1.4569 3.9923-2.2057-0.80491-2.2057-0.80492zm14.027 10.077 2.3138-6.3407 4.3892 1.6017-0.35502 1.3272 0.9431-0.30129c1.4192-0.4534 2.2757-0.43113 3.7139 0.09659 2.2715 0.83344 3.8824 2.5788 4.0915 4.4329 0.0965 0.85577-5e-3 1.2067-1.6691 5.7666l-1.7718 4.8554-4.4114-1.6098 1.4821-4.0636c1.3552-3.7153 1.4693-4.1239 1.332-4.7664-0.41709-1.9523-2.6385-2.5998-4.4743-1.3043-0.61508 0.4341-0.68858 0.58925-2.0621 4.3532l-1.4243 3.903-4.4114-1.6098zm28.739 12.713-2.3107-5.7968 1.2768-3.485 10.224-5.6805 5.7011 2.0805-2.0564 1.1217c-1.131 0.61696-3.84 2.1038-6.0201 3.3041l-3.9638 2.1823 0.3878 0.86422c0.75467 1.6818 5.4811 13.336 5.4467 13.43-0.0192 0.0526-1.4613-0.42625-3.2046-1.0641l-3.1697-1.1598zm12.223 9.1991c-1.7508-1.0451-3.3258-3.439-3.5986-5.4696-0.17586-1.309 0.17725-3.0424 0.8497-4.171 2.0768-3.4858 6.5107-4.5707 10.358-2.5343 3.193 1.6903 4.4433 4.5004 3.5707 8.0255l-0.31018 1.253-9.8004-3.5764-0.0912 0.62451c-0.21794 1.4924 0.64747 2.7227 2.3318 3.3148 1.1826 0.41576 1.8144 0.4161 2.8356 2e-3l0.63974-0.25975 1.3079 1.3439c0.71933 0.73914 1.287 1.401 1.2616 1.4708-0.0255 0.0698-0.58222 0.37544-1.2372 0.67921-2.3615 1.0952-5.571 0.81752-8.1169-0.70218zm7.364-7.0804c0.14192-0.38892-0.2773-1.7217-0.67787-2.155-0.22399-0.2423-0.79663-0.52657-1.458-0.72379-0.90728-0.27054-1.2098-0.2697-1.8118 5e-3 -0.39748 0.18141-0.85865 0.53069-1.0248 0.77618l-0.30211 0.44633 2.5933 0.94634c2.0565 0.75047 2.6115 0.89636 2.6814 0.70484zm23.367 18.206c-1.1768-0.83135-1.733-1.5427-2.3409-2.994-0.73309-1.75-0.72281-3.1406 0.0387-5.2273 0.48878-1.3394 0.78552-1.8811 1.4089-2.5717 1.1079-1.2276 2.9477-2.109 4.6155-2.2114 2.3871-0.14653 4.7952 1.0103 6.1808 2.9692l0.40615 0.57423 3.5937-9.8479 2.2057 0.80491 2.2057 0.80492-7.8215 21.433-4.2276-1.5428 0.26072-0.71444c0.14339-0.39294 0.2145-0.7313 0.15803-0.75191-0.0565-0.0206-0.49468 0.0886-0.97379 0.24269-0.4791 0.15409-1.2146 0.2918-1.6344 0.30602-1.1808 0.04-3.0375-0.54026-4.0757-1.2737zm6.3387-2.1546c0.83328-0.22725 1.9784-1.2773 2.2728-2.084 0.35447-0.97136 0.0844-2.4202-0.59857-3.2113-0.46905-0.54329-0.80111-0.7426-1.6682-1.0013-1.7852-0.53261-3.1147 0.0675-3.874 1.7486-0.5678 1.2572-0.44373 2.4048 0.36455 3.3717 0.68775 0.82275 2.5307 1.4415 3.5034 1.1763z" style="fill:#0c1015;stroke-width:.57144"/>
     </g>
    </g>

    <g id="car" transform="translate(-234.4, -182.8)">
        <path fill="#fafafa" d="M234.4,182.8c-3.5,0-6.4,2.9-6.4,6.4c0,3.5,2.9,6.4,6.4,6.4c3.5,0,6.4-2.9,6.4-6.4C240.8,185.6,238,182.8,234.4,182.8z" />
        <circle cx="234.4" cy="189.2" r="2.8" />
        <path fill="#fafafa" d="M263,182.8c-3.5,0-6.4,2.9-6.4,6.4c0,3.5,2.9,6.4,6.4,6.4c3.5,0,6.4-2.9,6.4-6.4C269.4,185.6,266.6,182.8,263,182.8z" />
        <circle cx="263" cy="189.2" r="2.8" />
        <path fill="#5D6D7E" d="M275,171.4c-2.8-0.7-5.2-3-6.3-5.1l-3.9-7.4c-1.1-2.1-3.9-3.8-6.3-3.8h-22.6c-2.4,0-5,1.8-5.7,4.1l-2.4,7
      c-0.2,0.9-1.8,5.5-5,5.5c-2.4,0-5,3.1-5,5.5v8.2c0,2.4,1.9,4.3,4.3,4.3h4.5c0-0.2,0-0.3,0-0.5c0-4.3,3.5-7.8,7.8-7.8
      c4.3,0,7.8,3.5,7.8,7.8c0,0.2,0,0.3,0,0.5h13.1c0-0.2,0-0.3,0-0.5c0-4.3,3.5-7.8,7.8-7.8s7.8,3.5,7.8,7.8c0,0.2,0,0.3,0,0.5h8.1
      c2.4,0,4.3-1.9,4.3-4.3v-6.5C283.2,172,277.3,172,275,171.4z" />
        <path fill="#7ec8e3" d="M241.8,170.3h-12.5c0.7-1.1,1.1-2.2,1.2-2.6l2-5.9c0.6-1.9,2.8-3.5,4.8-3.5h4.5V170.3z" />
        <path fill="#7ec8e3" d="M246.1,170.3v-12h10.4c2,0,4.4,1.5,5.3,3.3l3.3,6.3c0.4,0.8,1.1,1.7,2,2.4H246.1z" />
    </g>
    <animateMotion xlink:href="#car" dur="3s" begin="0s" fill="freeze" repeatCount="indefinite" rotate="auto-reverse">
        <mpath xlink:href="#motionPath" />
    </animateMotion>
</svg>
