<svg xmlns="http://www.w3.org/2000/svg" xmlns:xlink="http://www.w3.org/1999/xlink" fill="transparent" style="margin:auto;background:transparent;display:block;z-index:1;position:relative" width="3000" height="1581" preserveAspectRatio="xMidYMid" viewBox="0 0 3000 1581">
    <g transform="translate(1500,790.5) scale(1,1) translate(-1500,-790.5)">
        <style type="text/css">
      @keyframes ld-speed-dash {
        0% { transform: translate(0,-1021.100263926149px); }
        100% { transform: translate(0,3021.100263926149px); }
      }
      .ld.ld-speed-dash {
        animation: ld-speed-dash 5s linear infinite;
      }

      svg #rocket {
        animation: stroke 5s infinite alternate;
        stroke-width: 2;
        stroke: #ffb606;
        position:absolute;
        width:100%;
        height:100%;
    }
    @keyframes stroke {
        0%   {
            fill: rgba(255, 182, 6, 0.9); stroke: white;
            transform: translate(40%, 50%);
            stroke-dashoffset: 25%; stroke-dasharray: 0 60%; stroke-width: 2;
        }
        10% {
            transform: translate(41%, 51.2%);
        }
        20%{
            transform: translate(40.5%, 49.8%);
        }
        30%{
            transform: translate(40.5%, 60.5%);
        }
        70%  {
            fill: rgba(255, 182, 6, 0.69); stroke: rgba(210,240,240,1);
            transform: translate(40%, 50%);
        }
        80%  {fill: rgba(255, 182, 6, 0.69); stroke: rgba(210,240,240,1); stroke-width: 1; 
            transform: translate(41%, 45%);
        }
        100% {
            fill: rgba(255, 182, 6, 0.99); stroke: rgba(210,240,240,1); 
            stroke-dashoffset: -25%; stroke-dasharray: 30% 0; stroke-width: 0;
            transform: translate(40%, 50%);
        }
    }
    </style>
        <g transform="translate(1500,790.5)">
            <g style="transform:rotate(5deg)">

                <line x1="1197.6750893441838" x2="1197.6750893441838" y1="0" y2="-476.4575428288164" stroke="#ffffff" stroke-width="4.442521142486658" stroke-linecap="round" class="ld ld-speed-dash" style="animation-delay: -0.3535269980463007s;animation-duration:2s"></line>
                <line x1="-974.2997929236359" x2="-974.2997929236359" y1="0" y2="-516.566555163389" stroke="#ffb606" stroke-width="4.075194753261092" stroke-linecap="round" class="ld ld-speed-dash" style="animation-delay: -0.8097552663347454s;animation-duration:2s"></line>
                <line x1="665.4765572243992" x2="665.4765572243992" y1="0" y2="-218.74700650637288" stroke="#ffffff" stroke-width="4.828862161375165" stroke-linecap="round" class="ld ld-speed-dash" style="animation-delay: -1.770202261701598s;animation-duration:2s"></line>
                <line x1="-6.10535213989194" x2="-6.10535213989194" y1="0" y2="-592.2424731544743" stroke="#ffffff" stroke-width="1.5633373101193482" stroke-linecap="round" class="ld ld-speed-dash" style="animation-delay: -1.0100245374038694s;animation-duration:2s"></line>
                <line x1="-918.8766941822583" x2="-918.8766941822583" y1="0" y2="-231.48817905453498" stroke="#ffb606" stroke-width="4.53372822372538" stroke-linecap="round" class="ld ld-speed-dash" style="animation-delay: -1.1235141108176157s;animation-duration:1s"></line>
                <line x1="-630.4227675233632" x2="-630.4227675233632" y1="0" y2="-228.43328706035433" stroke="#ffffff" stroke-width="2.69755414604244" stroke-linecap="round" class="ld ld-speed-dash" style="animation-delay: -1.6412838331505926s;animation-duration:1s"></line>
                <line x1="1290.5236925827674" x2="1290.5236925827674" y1="0" y2="-363.41610231181085" stroke="#ffb606" stroke-width="2.432426202012883" stroke-linecap="round" class="ld ld-speed-dash" style="animation-delay: -0.7731305983371155s;animation-duration:1s"></line>
                <line x1="-1477.8519588598192" x2="-1477.8519588598192" y1="0" y2="-386.05427245724036" stroke="#ffffff" stroke-width="1.2655462046768218" stroke-linecap="round" class="ld ld-speed-dash" style="animation-delay: -0.03431464205762902s;animation-duration:2s"></line>
                <line x1="-837.3657776865886" x2="-837.3657776865886" y1="0" y2="-392.5511522983371" stroke="#ffffff" stroke-width="1.322444686282802" stroke-linecap="round" class="ld ld-speed-dash" style="animation-delay: -1.667700490699361s;animation-duration:2s"></line>
                <line x1="178.50478578228413" x2="178.50478578228413" y1="0" y2="-522.5670055972846" stroke="#ffb606" stroke-width="2.4461193031260144" stroke-linecap="round" class="ld ld-speed-dash" style="animation-delay: -0.3069244820506496s;animation-duration:2s"></line>
                <line x1="-813.2624654138812" x2="-813.2624654138812" y1="0" y2="-591.2807736445905" stroke="#ffffff" stroke-width="3.9667678449249055" stroke-linecap="round" class="ld ld-speed-dash" style="animation-delay: -1.2623365638377422s;animation-duration:2s"></line>
                <line x1="623.5177666932206" x2="623.5177666932206" y1="0" y2="-252.45355283350062" stroke="#ffb606" stroke-width="0.34223410656356257" stroke-linecap="round" class="ld ld-speed-dash" style="animation-delay: -1.6378777650298888s;animation-duration:2s"></line>
                <line x1="648.1318153628108" x2="648.1318153628108" y1="0" y2="-347.9957145362282" stroke="#ffffff" stroke-width="0.5703072950120169" stroke-linecap="round" class="ld ld-speed-dash" style="animation-delay: -0.330878837800765s;animation-duration:2s"></line>
                <line x1="-1036.213599243617" x2="-1036.213599243617" y1="0" y2="-182.3117306848137" stroke="#ffffff" stroke-width="2.784747873293658" stroke-linecap="round" class="ld ld-speed-dash" style="animation-delay: -0.5141732324354575s;animation-duration:2s"></line>
                <line x1="1427.9121803314526" x2="1427.9121803314526" y1="0" y2="-461.5846526500352" stroke="#ffffff" stroke-width="4.170362084227102" stroke-linecap="round" class="ld ld-speed-dash" style="animation-delay: -1.4211829615490479s;animation-duration:1s"></line>
                <line x1="-799.9135969321574" x2="-799.9135969321574" y1="0" y2="-257.3482011605613" stroke="#ffffff" stroke-width="1.9094231503368109" stroke-linecap="round" class="ld ld-speed-dash" style="animation-delay: -1.0417387445247202s;animation-duration:1s"></line>
                <line x1="-466.03214434217733" x2="-466.03214434217733" y1="0" y2="-440.27461288508727" stroke="#ffb606" stroke-width="3.90008154213446" stroke-linecap="round" class="ld ld-speed-dash" style="animation-delay: -1.2308405767643587s;animation-duration:1s"></line>
                <line x1="-799.3886559595676" x2="-799.3886559595676" y1="0" y2="-202.13251103487352" stroke="#ffb606" stroke-width="0.17479970976099546" stroke-linecap="round" class="ld ld-speed-dash" style="animation-delay: -0.6114868650007486s;animation-duration:1s"></line>
                <line x1="-780.0029528571881" x2="-780.0029528571881" y1="0" y2="-502.41390764047185" stroke="#ffffff" stroke-width="4.785999355528613" stroke-linecap="round" class="ld ld-speed-dash" style="animation-delay: -1.4198944718594242s;animation-duration:2s"></line>
                <line x1="791.185642301504" x2="791.185642301504" y1="0" y2="-374.34702159461904" stroke="#ffb606" stroke-width="0.37785276381900434" stroke-linecap="round" class="ld ld-speed-dash" style="animation-delay: -0.05284422926382826s;animation-duration:1s"></line>
                <line x1="-636.6909687005755" x2="-636.6909687005755" y1="0" y2="-245.52026685264178" stroke="#ffffff" stroke-width="0.4777517649253604" stroke-linecap="round" class="ld ld-speed-dash" style="animation-delay: -1.3193139353326573s;animation-duration:1s"></line>
                <line x1="671.946704084288" x2="671.946704084288" y1="0" y2="-492.6314825335356" stroke="#ffffff" stroke-width="4.465237809512372" stroke-linecap="round" class="ld ld-speed-dash" style="animation-delay: -0.12374581901485637s;animation-duration:1s"></line>
                <line x1="296.3694238528418" x2="296.3694238528418" y1="0" y2="-320.9417922929315" stroke="#ffffff" stroke-width="1.1140757436660331" stroke-linecap="round" class="ld ld-speed-dash" style="animation-delay: -0.9361536738442933s;animation-duration:2s"></line>
                <line x1="1333.8758831637801" x2="1333.8758831637801" y1="0" y2="-393.2134622417085" stroke="#ffffff" stroke-width="2.2098672244186126" stroke-linecap="round" class="ld ld-speed-dash" style="animation-delay: -1.6544081748069162s;animation-duration:2s"></line>
                <line x1="-190.09094700414343" x2="-190.09094700414343" y1="0" y2="-533.1377386976114" stroke="#ffffff" stroke-width="4.304486204069846" stroke-linecap="round" class="ld ld-speed-dash" style="animation-delay: -1.5769720520159551s;animation-duration:2s"></line>
                <line x1="-579.3213886441526" x2="-579.3213886441526" y1="0" y2="-350.4455575261886" stroke="#ffffff" stroke-width="0.17969557860114005" stroke-linecap="round" class="ld ld-speed-dash" style="animation-delay: -0.48248558667837527s;animation-duration:1s"></line>
                <line x1="-205.38710073569865" x2="-205.38710073569865" y1="0" y2="-218.56283507612017" stroke="#ffffff" stroke-width="4.973876190205873" stroke-linecap="round" class="ld ld-speed-dash" style="animation-delay: -0.5530073635940131s;animation-duration:1s"></line>
                <line x1="250.36599155925688" x2="250.36599155925688" y1="0" y2="-510.2850652453962" stroke="#ffffff" stroke-width="1.9320281136881423" stroke-linecap="round" class="ld ld-speed-dash" style="animation-delay: -0.2898786785160885s;animation-duration:2s"></line>
                <line x1="-582.9118597867831" x2="-582.9118597867831" y1="0" y2="-409.7688148620124" stroke="#ffb606" stroke-width="0.5233876924544156" stroke-linecap="round" class="ld ld-speed-dash" style="animation-delay: -0.1989828974300858s;animation-duration:2s"></line>
                <line x1="257.41214031735973" x2="257.41214031735973" y1="0" y2="-595.9257028114534" stroke="#ffb606" stroke-width="3.53419172950183" stroke-linecap="round" class="ld ld-speed-dash" style="animation-delay: -0.14732512882962867s;animation-duration:1s"></line>
                <line x1="584.9371645205206" x2="584.9371645205206" y1="0" y2="-383.85788825990323" stroke="#ffffff" stroke-width="1.2128037122126611" stroke-linecap="round" class="ld ld-speed-dash" style="animation-delay: -0.959056210634166s;animation-duration:1s"></line>
                <line x1="290.68396717833565" x2="290.68396717833565" y1="0" y2="-520.2836323057612" stroke="#ffffff" stroke-width="3.378057455843213" stroke-linecap="round" class="ld ld-speed-dash" style="animation-delay: -0.4666213116703992s;animation-duration:2s"></line>
                <line x1="-808.4047386594957" x2="-808.4047386594957" y1="0" y2="-400.62974340321455" stroke="#ffffff" stroke-width="3.896303479506652" stroke-linecap="round" class="ld ld-speed-dash" style="animation-delay: -1.678000213471695s;animation-duration:2s"></line>
                <line x1="-1005.4295606655605" x2="-1005.4295606655605" y1="0" y2="-424.87934353125087" stroke="#ffb606" stroke-width="2.274091739868882" stroke-linecap="round" class="ld ld-speed-dash" style="animation-delay: -0.00721914952785907s;animation-duration:1s"></line>
                <line x1="656.3659139837155" x2="656.3659139837155" y1="0" y2="-629.6323040536765" stroke="#ffffff" stroke-width="1.9152540848088129" stroke-linecap="round" class="ld ld-speed-dash" style="animation-delay: -0.1082618579621295s;animation-duration:1s"></line>
                <line x1="-961.5314999287168" x2="-961.5314999287168" y1="0" y2="-393.89475244613527" stroke="#ffffff" stroke-width="2.6829724689356684" stroke-linecap="round" class="ld ld-speed-dash" style="animation-delay: -1.6728721735289032s;animation-duration:1s"></line>
                <line x1="803.4723584400178" x2="803.4723584400178" y1="0" y2="-358.308138930454" stroke="#ffffff" stroke-width="2.7509970525858565" stroke-linecap="round" class="ld ld-speed-dash" style="animation-delay: -1.2317767403840172s;animation-duration:1s"></line>
                <line x1="-759.8865937342994" x2="-759.8865937342994" y1="0" y2="-383.10210823816226" stroke="#ffb606" stroke-width="1.6437650298386741" stroke-linecap="round" class="ld ld-speed-dash" style="animation-delay: -0.3993212946528235s;animation-duration:2s"></line>
                <line x1="-1344.2513927349328" x2="-1344.2513927349328" y1="0" y2="-247.1413556244591" stroke="#ffffff" stroke-width="3.5553542464993972" stroke-linecap="round" class="ld ld-speed-dash" style="animation-delay: -1.5379822345094314s;animation-duration:2s"></line>
                <line x1="1309.809103650599" x2="1309.809103650599" y1="0" y2="-489.9604521042125" stroke="#ffb606" stroke-width="4.13206192693539" stroke-linecap="round" class="ld ld-speed-dash" style="animation-delay: -1.103865280784579s;animation-duration:1s"></line>
                <line x1="431.3897483260434" x2="431.3897483260434" y1="0" y2="-625.3259296872486" stroke="#ffb606" stroke-width="3.8975135192391095" stroke-linecap="round" class="ld ld-speed-dash" style="animation-delay: -1.7160855982884584s;animation-duration:2s"></line>
                <line x1="19.66538499152426" x2="19.66538499152426" y1="0" y2="-341.034263018125" stroke="#ffffff" stroke-width="3.780487840396977" stroke-linecap="round" class="ld ld-speed-dash" style="animation-delay: -0.9553751275658002s;animation-duration:2s"></line>
                <line x1="-161.99285233792193" x2="-161.99285233792193" y1="0" y2="-512.5603466252524" stroke="#ffb606" stroke-width="2.2902028131639773" stroke-linecap="round" class="ld ld-speed-dash" style="animation-delay: -0.7116853042277116s;animation-duration:1s"></line>
                <line x1="267.0255489909128" x2="267.0255489909128" y1="0" y2="-329.78014391190516" stroke="#ffb606" stroke-width="1.6928908725230019" stroke-linecap="round" class="ld ld-speed-dash" style="animation-delay: -1.2555549329718585s;animation-duration:2s"></line>
            </g>
        </g>
        <g id="rocket">
            <path id="bodyRocket" d="M133.339 81.4203C123.964 101.262 121.597 105.421 121.597 105.421L116.429 126.282L113.711 142.987L113.098 172.021L114.851 189.747L120.546 226.659L124.988 245.108L130.698 265.566L134.719 279.08L142.112 297.473L159.448 301.211L173.818 302.671L186.26 302.16L206.325 299.023L211.987 297.467L222.489 268.676L228.206 246.705L231.997 232.313L235.371 217.214L237.122 206.781L241.02 176.179L241.723 153.2L240.496 139.706L237.867 124.168L234.188 111.402L229.106 97.7602L223.497 86.4542L220.255 80.9836L213.641 83.6461L196.599 87.6947L174.564 89.0808L160.064 88.2769L150.674 86.6647L140.98 83.879L133.339 81.4203Z" fill="white" />
            <path id="crystal" d="M174.937 398.941C173.953 397.432 170.855 393.088 168.056 389.288C155.91 372.809 152.406 367.186 149.323 359.248C147.553 354.689 146.944 352.165 146.557 347.752C145.677 337.764 148.301 327.184 154.082 317.414C155.097 315.697 155.927 314.194 155.927 314.073C155.927 313.95 155.461 313.76 154.891 313.648C151.319 312.949 148.397 312.069 148.173 311.623C148.031 311.343 147.11 308.712 146.129 305.777C144.212 300.058 144.352 300.243 141.35 299.337C140.273 299.01 140.066 298.718 139.161 296.255C138.615 294.757 138.096 293.358 138.009 293.14C137.776 292.565 136.759 292.655 133.483 293.546C128.959 294.775 125.222 296.327 120.679 298.857C111.332 304.068 103.278 311.261 95.1752 321.633C90.0116 328.245 90.0765 328.176 88.7249 328.476C86.315 329.009 84.1552 327.999 83.5492 326.055C82.8758 323.899 82.2889 314.001 82.5367 308.961C83.5155 288.839 89.7999 272.116 102.193 256.645C106.744 250.964 109.726 247.968 115.989 242.779L121.547 238.175L121.217 236.957C120.433 234.044 117.427 219.858 116.376 214.106C112.662 193.764 111.034 177.574 111.027 160.912C111.015 140.817 113.146 126.824 118.803 109.828C127.155 84.7254 141.271 63.0427 160.639 45.5495C168.032 38.872 170.54 37.6651 177.044 37.6651C183.518 37.6651 186.07 38.8832 193.304 45.4196C212.833 63.065 226.91 84.6605 235.284 109.828C240.948 126.842 243.082 140.835 243.07 160.892C243.06 177.518 241.422 193.784 237.714 214.106C236.653 219.905 233.654 234.053 232.858 237.007L232.514 238.276L236.525 241.418C255.689 256.428 267.868 277.517 270.915 300.958C271.913 308.623 271.707 322.309 270.54 326.058C269.626 328.989 265.23 329.575 263.183 327.038C262.666 326.396 260.509 323.68 258.39 321.001C253.556 314.89 249.652 310.837 244.349 306.415C236.607 299.959 228.949 295.814 220.549 293.532C217.328 292.657 216.311 292.569 216.08 293.143C215.993 293.36 215.474 294.759 214.926 296.258C214.024 298.721 213.817 299.012 212.737 299.339C209.735 300.246 209.875 300.06 207.961 305.779C206.977 308.715 206.058 311.346 205.916 311.626C205.69 312.071 202.77 312.951 199.199 313.65C198.626 313.762 198.16 313.952 198.16 314.075C198.16 314.196 198.992 315.701 200.007 317.416C207.364 329.851 209.639 344.305 206.041 355.746C203.208 364.748 199.206 371.456 186.036 389.29C183.232 393.09 180.132 397.434 179.148 398.943C178.164 400.455 177.219 401.691 177.044 401.691C176.87 401.691 175.923 400.455 174.937 398.943V398.941ZM188.958 300.436C191.428 300.167 194.295 299.746 195.332 299.498C196.96 299.108 201.101 298.385 208.997 297.108L210.972 296.788L212.282 293.279C215.464 284.748 223.427 259.847 223.427 258.425C223.427 258.031 223.189 258.006 222.013 258.275C221.234 258.452 219.919 258.848 219.089 259.155C216.191 260.23 202.025 262.48 190.998 263.616C185.771 264.153 168.306 264.153 163.092 263.616C153.38 262.613 141.747 260.646 133.206 258.566C131.011 258.033 130.662 258.013 130.662 258.423C130.662 259.847 138.62 284.734 141.805 293.273L143.11 296.777L147.916 297.738C156.129 299.379 162.334 300.232 171.952 301.041C174.718 301.273 184.413 300.929 188.958 300.436ZM196.274 261.256C203.086 260.38 207.662 259.621 208.651 259.202C209 259.054 211.575 258.483 214.375 257.932C224.856 255.868 224.127 256.092 224.541 254.806C224.743 254.18 225.667 250.769 226.59 247.229C238.399 202.038 242.156 164.347 237.762 135.149C235.874 122.612 231.658 108.262 226.556 97.0056C225.113 93.8213 219.911 84.0917 219.44 83.6954C219.356 83.626 217.802 84.1388 215.984 84.8374C214.166 85.5361 211.746 86.3288 210.606 86.5997C197.621 89.6787 189.528 90.6461 176.856 90.6349C161.663 90.6237 148.709 88.5904 138.298 84.5866C136.53 83.9059 134.926 83.3506 134.736 83.3506C133.957 83.3506 128.594 94.1259 125.4 102.107C121.564 111.691 118.444 122.632 116.722 132.532C111.674 161.566 115.524 202.108 127.689 248.019C130.049 256.923 129.245 255.783 133.964 256.914C144.811 259.516 153.205 260.87 166.11 262.111C166.834 262.18 172.52 262.198 178.741 262.149C188.641 262.071 190.832 261.961 196.277 261.26L196.274 261.256ZM172.89 184.744C153.707 182.872 139.363 169.513 139.339 153.493C139.335 149.505 139.729 147.322 141.097 143.782C145.08 133.479 154.895 125.816 167.928 122.831C172.123 121.87 181.967 121.87 186.161 122.831C199.194 125.816 209.007 133.481 212.99 143.782C214.358 147.322 214.755 149.505 214.748 153.493C214.726 169.598 200.327 182.933 181.005 184.742C177.258 185.094 176.481 185.094 172.89 184.742V184.744ZM185.649 162.936L203.064 152.36V151.198C203.064 147.725 199.095 140.205 197.453 140.566C197.116 140.64 191.327 144.01 184.586 148.054C177.844 152.096 168.556 157.656 163.938 160.406C159.325 163.156 155.549 165.601 155.549 165.841C155.549 166.078 156.949 167.43 158.659 168.843C160.872 170.671 162.579 171.757 164.573 172.601C166.112 173.253 167.568 173.725 167.803 173.649C168.041 173.575 176.072 168.754 185.649 162.936ZM154.621 156.239C159.099 153.657 190.423 135.4 190.579 135.279C191.245 134.762 185.735 132.532 182.854 132.151C181.426 131.963 181.132 132.106 173.462 136.699C169.107 139.308 164.186 142.243 162.524 143.222C160.867 144.203 157.62 146.164 155.314 147.586L151.119 150.17L150.857 151.908C150.523 154.138 151.057 157.752 151.723 157.752C151.872 157.752 153.176 157.072 154.619 156.239H154.621ZM174.953 97.9595C173.919 97.0996 173.722 95.4806 174.542 94.5827C175.338 93.7094 177.022 93.3085 178.195 93.7139C181.163 94.7372 180.247 98.7298 177.044 98.7298C176.31 98.7298 175.536 98.4454 174.953 97.9595ZM159.936 97.4512C158.71 96.6473 158.568 94.791 159.648 93.678C161.096 92.1912 164.268 92.9906 164.792 94.9768C165.42 97.3527 162.252 98.9672 159.936 97.4512ZM190.586 97.6997C188.08 96.0987 189.273 92.9525 192.383 92.9525C194.11 92.9525 195.144 93.9445 195.144 95.6016C195.144 96.5241 194.913 96.9518 194.151 97.4512C193.044 98.1745 191.498 98.2819 190.586 97.6997ZM146.843 95.5031C144.339 93.902 145.53 90.7558 148.64 90.7558C150.369 90.7558 151.401 91.7478 151.401 93.4048C151.401 94.3252 151.172 94.7551 150.407 95.2545C149.304 95.9778 147.757 96.0853 146.843 95.5031ZM203.68 95.2545C202.451 94.4506 202.309 92.5942 203.391 91.4813C204.839 89.9945 208.011 90.7939 208.533 92.7801C209.161 95.156 205.993 96.7705 203.68 95.2545ZM215.476 92.1621C214.146 91.0536 214.002 89.4772 215.123 88.2904C217.186 86.1071 221.162 87.5312 221.162 90.4557C221.162 91.6 219.25 93.0802 217.768 93.0802C216.958 93.0802 216.229 92.7868 215.476 92.1621ZM134.226 91.9941C132.107 90.2296 134.08 86.9714 136.908 87.5626C140.388 88.2881 139.881 92.7644 136.319 92.7644C135.583 92.7644 134.811 92.48 134.226 91.9941Z" fill="#8AC9E3" />
            <path id="winds" d="M174.937 398.941C173.953 397.432 170.855 393.088 168.056 389.288C155.91 372.809 152.406 367.186 149.323 359.248C147.553 354.689 146.944 352.165 146.557 347.752C145.677 337.764 148.301 327.184 154.082 317.414C155.097 315.697 155.927 314.194 155.927 314.073C155.927 313.95 155.461 313.76 154.891 313.648C151.319 312.949 148.397 312.069 148.173 311.623C148.031 311.343 147.11 308.712 146.129 305.777C144.212 300.058 144.352 300.243 141.35 299.337C140.273 299.01 140.066 298.718 139.161 296.255C138.615 294.757 138.096 293.358 138.009 293.14C137.776 292.565 136.759 292.655 133.483 293.546C128.959 294.775 125.222 296.327 120.679 298.857C111.332 304.068 103.278 311.261 95.1752 321.633C90.0116 328.245 90.0765 328.176 88.7249 328.476C86.315 329.009 84.1552 327.999 83.5492 326.055C82.8758 323.899 82.2889 314.001 82.5367 308.961C83.5155 288.839 89.7999 272.116 102.193 256.645C106.744 250.964 109.726 247.968 115.989 242.779L121.547 238.175L121.217 236.957C120.433 234.044 117.427 219.858 116.376 214.106C112.662 193.764 111.034 177.574 111.027 160.912C111.015 140.817 113.146 126.824 118.803 109.828C127.155 84.7254 141.271 63.0427 160.639 45.5495C168.032 38.872 170.54 37.6651 177.044 37.6651C183.518 37.6651 186.07 38.8832 193.304 45.4196C212.833 63.065 226.91 84.6605 235.284 109.828C240.948 126.842 243.082 140.835 243.07 160.892C243.06 177.518 241.422 193.784 237.714 214.106C236.653 219.905 233.654 234.053 232.858 237.007L232.514 238.276L236.525 241.418C255.689 256.428 267.868 277.517 270.915 300.958C271.913 308.623 271.707 322.309 270.54 326.058C269.626 328.989 265.23 329.575 263.183 327.038C262.666 326.396 260.509 323.68 258.39 321.001C253.556 314.89 249.652 310.837 244.349 306.415C236.607 299.959 228.949 295.814 220.549 293.532C217.328 292.657 216.311 292.569 216.08 293.143C215.993 293.36 215.474 294.759 214.926 296.258C214.024 298.721 213.817 299.012 212.737 299.339C209.735 300.246 209.875 300.06 207.961 305.779C206.977 308.715 206.058 311.346 205.916 311.626C205.69 312.071 202.77 312.951 199.199 313.65C198.626 313.762 198.16 313.952 198.16 314.075C198.16 314.196 198.992 315.701 200.007 317.416C207.364 329.851 209.639 344.305 206.041 355.746C203.208 364.748 199.206 371.456 186.036 389.29C183.232 393.09 180.132 397.434 179.148 398.943C178.164 400.455 177.219 401.691 177.044 401.691C176.87 401.691 175.923 400.455 174.937 398.943V398.941ZM188.958 300.436C191.428 300.167 194.295 299.746 195.332 299.498C196.96 299.108 201.101 298.385 208.997 297.108L210.972 296.788L212.282 293.279C215.464 284.748 223.427 259.847 223.427 258.425C223.427 258.031 223.189 258.006 222.013 258.275C221.234 258.452 219.919 258.848 219.089 259.155C216.191 260.23 202.025 262.48 190.998 263.616C185.771 264.153 168.306 264.153 163.092 263.616C153.38 262.613 141.747 260.646 133.206 258.566C131.011 258.033 130.662 258.013 130.662 258.423C130.662 259.847 138.62 284.734 141.805 293.273L143.11 296.777L147.916 297.738C156.129 299.379 162.334 300.232 171.952 301.041C174.718 301.273 184.413 300.929 188.958 300.436ZM196.274 261.256C203.086 260.38 207.662 259.621 208.651 259.202C209 259.054 211.575 258.483 214.375 257.932C224.856 255.868 224.127 256.092 224.541 254.806C224.743 254.18 225.667 250.769 226.59 247.229C238.399 202.038 242.156 164.347 237.762 135.149C235.874 122.612 231.658 108.262 226.556 97.0056C225.113 93.8213 219.911 84.0917 219.44 83.6954C219.356 83.626 217.802 84.1388 215.984 84.8374C214.166 85.5361 211.746 86.3288 210.606 86.5997C197.621 89.6787 189.528 90.6461 176.856 90.6349C161.663 90.6237 148.709 88.5904 138.298 84.5866C136.53 83.9059 134.926 83.3506 134.736 83.3506C133.957 83.3506 128.594 94.1259 125.4 102.107C121.564 111.691 118.444 122.632 116.722 132.532C111.674 161.566 115.524 202.108 127.689 248.019C130.049 256.923 129.245 255.783 133.964 256.914C144.811 259.516 153.205 260.87 166.11 262.111C166.834 262.18 172.52 262.198 178.741 262.149C188.641 262.071 190.832 261.961 196.277 261.26L196.274 261.256ZM172.89 184.744C153.707 182.872 139.363 169.513 139.339 153.493C139.335 149.505 139.729 147.322 141.097 143.782C145.08 133.479 154.895 125.816 167.928 122.831C172.123 121.87 181.967 121.87 186.161 122.831C199.194 125.816 209.007 133.481 212.99 143.782C214.358 147.322 214.755 149.505 214.748 153.493C214.726 169.598 200.327 182.933 181.005 184.742C177.258 185.094 176.481 185.094 172.89 184.742V184.744ZM185.336 173.956C189.396 172.758 191.926 171.419 195.175 168.74C200.579 164.291 203.061 159.264 203.061 152.774C203.061 146.231 199.627 140.801 192.503 136.081C188.759 133.6 185.201 132.375 180.497 131.949C166.278 130.664 154.342 137.995 151.353 149.857C150.431 153.507 150.612 155.703 152.158 159.64C153.705 163.583 155.684 166.376 158.734 168.924C161.995 171.647 165.182 173.163 169.879 174.222C173.02 174.932 174.02 175.017 177.986 174.91C181.671 174.811 183.037 174.634 185.336 173.956ZM174.953 97.9595C173.919 97.0996 173.722 95.4806 174.542 94.5827C175.338 93.7116 177.022 93.3108 178.195 93.7139C181.163 94.7394 180.247 98.732 177.044 98.732C176.31 98.732 175.536 98.4454 174.953 97.9595ZM159.936 97.4534C158.71 96.6473 158.568 94.7909 159.648 93.6803C161.096 92.1912 164.268 92.9928 164.792 94.9768C165.417 97.3549 162.252 98.9694 159.936 97.4534ZM190.586 97.6997C188.08 96.1009 189.273 92.9548 192.383 92.9548C194.11 92.9548 195.144 93.9445 195.144 95.6038C195.144 96.5242 194.913 96.9518 194.148 97.4534C193.044 98.1767 191.498 98.2842 190.586 97.6997ZM146.843 95.5031C144.339 93.902 145.53 90.7558 148.64 90.7558C150.369 90.7558 151.401 91.7478 151.401 93.4048C151.401 94.3274 151.17 94.7551 150.407 95.2545C149.304 95.9778 147.755 96.0853 146.843 95.5031ZM203.677 95.2545C202.451 94.4506 202.309 92.5942 203.391 91.4813C204.836 89.9945 208.009 90.7939 208.533 92.7801C209.161 95.156 205.993 96.7705 203.677 95.2545ZM215.476 92.1621C214.146 91.0536 214.002 89.4794 215.123 88.2904C217.186 86.1071 221.162 87.5312 221.162 90.4557C221.162 91.6 219.25 93.0802 217.768 93.0802C216.958 93.0802 216.229 92.7891 215.476 92.1621ZM134.226 91.9963C132.107 90.2318 134.08 86.9714 136.908 87.5626C140.388 88.2904 139.881 92.7667 136.316 92.7667C135.583 92.7667 134.811 92.4823 134.226 91.9963Z" fill="#F1CE57" />
            <path id="borderBeforeFire" d="M174.518 397.687C173.282 395.831 169.975 391.205 167.171 387.407C158.176 375.221 154.263 369.148 151.184 362.593C147.699 355.173 146.675 350.145 146.995 342.039C147.331 333.454 149.542 326.111 154.253 317.904C155.381 315.941 156.305 314.167 156.305 313.963C156.305 313.76 155.073 313.332 153.57 313.016C148.267 311.899 148.714 312.313 146.91 306.834C144.539 299.63 144.727 299.95 142.536 299.35L140.655 298.835L139.402 295.635C137.94 291.898 138.132 291.972 133.228 293.255C129.091 294.334 123.023 296.961 118.608 299.581C114.199 302.194 105.777 309.075 101.642 313.439C98.5279 316.729 94.6822 321.369 92.039 325.03C90.0933 327.721 89.3742 328.225 87.4815 328.225C85.6584 328.225 84.4511 327.368 83.9027 325.681C83.3063 323.841 82.705 312.871 82.9599 308.448C83.4458 299.954 84.8695 291.972 87.1327 285.025C92.799 267.637 104.199 251.934 119.666 240.204C121.561 238.769 122.016 238.249 121.852 237.707C121.742 237.331 120.972 234.042 120.147 230.396C115.837 211.36 112.896 191.693 111.77 174.399C111.219 165.93 111.537 147.201 112.347 140.485C116.376 107.058 130.835 76.4289 153.832 52.5965C158.486 47.7731 166.305 41.0105 168.676 39.7565C173.547 37.1814 180.543 37.1814 185.411 39.7565C186.385 40.2716 189.273 42.4907 191.832 44.6896C213.379 63.2039 229.842 89.8578 237.521 118.666C241.251 132.661 242.642 143.925 242.651 160.265C242.661 177.65 240.761 195.925 236.785 216.739C235.607 222.897 232.814 235.773 232.235 237.71C232.074 238.252 232.526 238.769 234.421 240.206C249.888 251.934 261.288 267.637 266.954 285.028C269.22 291.974 270.641 299.954 271.129 308.448C271.382 312.873 270.781 323.843 270.184 325.681C269.636 327.368 268.431 328.227 266.608 328.227C264.715 328.227 263.994 327.721 262.05 325.03C259.405 321.369 255.559 316.729 252.445 313.439C248.313 309.077 239.89 302.196 235.482 299.581C231.064 296.961 224.996 294.336 220.861 293.255C215.977 291.978 216.176 291.902 214.7 295.637L213.432 298.839L211.551 299.352C209.36 299.95 209.548 299.63 207.176 306.836C205.37 312.32 205.782 311.941 200.517 312.994C198.934 313.31 197.782 313.704 197.782 313.932C197.782 314.147 198.783 316.075 200.007 318.214C204.586 326.228 206.792 333.678 207.109 342.198C207.405 350.152 206.356 355.242 202.903 362.593C199.706 369.401 195.779 375.402 184.468 390.766C182.472 393.477 180.055 396.903 179.095 398.379C178.135 399.855 177.221 401.064 177.06 401.064C176.899 401.064 175.757 399.546 174.518 397.689V397.687ZM182.604 366.606C188.463 358.079 191.07 353.719 192.874 349.418C195.151 343.992 195.827 339.708 195.146 334.99C194.519 330.626 193.222 327.117 190.618 322.732C187.816 318.012 186.058 315.981 184.771 315.981C183.701 315.981 183.597 316.33 184.372 317.327C185.391 318.634 186.854 322.855 187.087 325.157C187.373 327.968 186.39 331.577 184.369 335.133C182.359 338.671 177.397 346.119 177.048 346.119C176.738 346.119 172.572 339.957 170.143 335.904C166.805 330.339 166.158 325.361 168.142 320.533C168.71 319.152 169.424 317.701 169.73 317.307C170.377 316.478 170.143 315.981 169.107 315.981C168.053 315.981 166.06 318.37 163.469 322.732C156.54 334.399 157.098 343.965 165.504 357.602C168.126 361.855 176.743 374.361 177.06 374.37C177.171 374.374 179.667 370.879 182.604 366.606ZM177.707 342.274C178.71 341.233 183.503 333.147 184.266 331.21C185.959 326.909 185.298 322.119 182.407 317.71L181.377 316.14H172.707L171.493 318.023C169.626 320.916 168.984 323.001 168.97 326.185C168.955 329.714 169.783 331.918 173.142 337.285C176.635 342.866 176.88 343.134 177.707 342.277V342.274ZM98.0998 312.725C105.635 304.688 113.119 298.936 121.475 294.757C125.416 292.787 131.836 290.487 134.558 290.068C136.191 289.817 136.605 289.284 136.008 288.194L135.599 287.446L132.978 288.051C119.149 291.242 105.996 299.95 96.2383 312.376C93.8981 315.356 89.1842 322.49 89.1842 323.053C89.1842 323.196 90.7186 321.434 92.5946 319.136C94.4681 316.841 96.9478 313.954 98.0998 312.725ZM262.659 319.221C259.84 314.754 256.283 310.17 252.825 306.551C249.388 302.955 242.466 297.442 238.315 294.995C234.034 292.471 226.121 289.237 221.802 288.243L218.475 287.477L218.076 288.21C217.489 289.282 217.908 289.817 219.536 290.068C220.33 290.191 222.506 290.783 224.373 291.383C237.778 295.684 250.02 304.901 261.901 319.638C263.452 321.561 264.782 323.086 264.857 323.028C264.934 322.97 263.943 321.257 262.659 319.219V319.221ZM87.657 319.38C88.5108 315.766 91.4642 308.938 94.0857 304.525C98.2826 297.449 102.455 292.572 109.081 286.994C115.123 281.908 120.854 278.348 127.389 275.625C129.219 274.861 130.85 274.167 131.015 274.082C131.184 273.997 130.236 270.302 128.916 265.873C127.593 261.444 125.585 254.359 124.452 250.129C123.319 245.899 122.297 242.356 122.177 242.258C121.855 241.989 113.449 249.208 110.544 252.252C97.5226 265.891 89.4343 282.497 86.9187 300.756C86.0192 307.275 86.0119 321.319 86.909 321.319C87.0678 321.319 87.4045 320.448 87.657 319.38ZM267.671 318.731C267.803 317.304 267.914 314.304 267.911 312.058C267.907 286.105 256.177 261.856 235.345 244.732C233.57 243.274 232.021 242.161 231.903 242.26C231.785 242.356 230.763 245.899 229.63 250.129C228.497 254.359 226.492 261.437 225.171 265.86C223.853 270.28 222.855 273.968 222.958 274.051C223.059 274.136 224.69 274.834 226.581 275.603C237.047 279.857 247.512 287.773 254.941 297.057C259.744 303.058 265.004 313.271 266.425 319.358C266.678 320.437 267.007 321.322 267.156 321.322C267.305 321.322 267.536 320.155 267.671 318.731ZM189.451 300.763C191.611 300.501 196.277 299.775 199.819 299.151C203.364 298.526 207.249 297.841 208.454 297.63C209.659 297.417 210.871 297.046 211.15 296.802C212.285 295.814 223.798 260.841 223.798 258.385C223.798 257.409 223.781 257.409 220.354 258.356C214.707 259.917 205.438 261.551 195.517 262.738C181.3 264.435 166.916 264.131 151.586 261.806C146.533 261.041 136.713 259.099 132.73 258.078C130.275 257.449 130.28 257.447 130.28 258.43C130.28 260.109 137.038 281.241 142.059 295.261C142.42 296.266 142.868 296.795 143.611 297.093C146.037 298.065 161.406 300.555 169.121 301.222C173.458 301.598 184.631 301.345 189.449 300.761L189.451 300.763ZM184.646 262.597C190.841 262.245 198.771 261.374 204.567 260.409C210.524 259.417 223.836 256.437 224.361 255.978C224.899 255.505 227.004 247.798 229.835 235.925C239.683 194.606 242.427 158.549 237.728 132.169C234.991 116.801 229.63 101.097 222.773 88.3732C221.424 85.8697 220.092 83.6192 219.813 83.3752C219.377 82.9922 218.783 83.1311 215.613 84.3716C209.892 86.6042 200.947 88.5859 191.558 89.6988C186.281 90.3213 166.661 90.2295 161.298 89.5533C151.802 88.3575 143.635 86.4093 137.709 83.9305C135.239 82.8959 134.623 82.7459 134.243 83.0885C133.668 83.6125 130.325 89.9205 128.202 94.4953C121.939 107.987 117.287 123.861 115.419 138.134C112.6 159.656 114.396 188.144 120.505 218.819C123.3 232.839 128.827 255.203 129.683 255.953C129.936 256.175 131.915 256.784 134.077 257.305C146.22 260.241 158.07 261.961 171.384 262.72C175.295 262.944 179.201 262.908 184.646 262.599V262.597ZM169.54 183.972C155.307 181.296 144.395 172.646 140.818 161.205C139.585 157.262 139.399 151.323 140.386 147.355C143.125 136.336 152.396 127.578 165.162 123.948C186.322 117.934 209.103 128.92 213.697 147.355C214.998 152.58 214.341 159.23 212.001 164.524C208.93 171.475 202.383 177.525 194.062 181.101C188.468 183.506 185.043 184.191 177.981 184.317C173.679 184.393 171.259 184.294 169.54 183.97V183.972ZM185.524 181.009C191.438 179.744 198.191 176.39 202.092 172.78C211.645 163.939 213.896 151.87 207.937 141.45C205.988 138.047 203.788 135.505 200.555 132.932C196.361 129.591 192.732 127.802 186.844 126.172C183.814 125.332 183.275 125.283 177.039 125.283C170.802 125.283 170.264 125.332 167.236 126.172C161.348 127.802 157.719 129.591 153.522 132.932C144.008 140.508 140.554 151.57 144.474 161.92C148.337 172.126 158.308 179.444 171.134 181.484C174.804 182.068 181.628 181.842 185.521 181.009H185.524ZM170.442 176.927C165.357 175.85 161.298 174.094 157.808 171.461C149.994 165.563 146.588 157 148.697 148.542C150.915 139.632 158.9 132.612 169.686 130.088C173.751 129.137 180.091 129.123 184.249 130.059C194.365 132.339 202.494 139.07 205.183 147.393C206.198 150.537 206.123 156.574 205.031 159.73C201.941 168.649 193.583 175.212 182.994 177.032C179.21 177.684 173.797 177.639 170.442 176.927ZM185.146 174.567C195.981 171.522 202.886 164.045 203.696 154.481C204.307 147.273 200.137 140.071 192.681 135.463C185.726 131.166 176.659 130.059 168.241 132.48C164.342 133.602 161.718 135.033 158.178 137.975C154.636 140.918 152.358 144.16 151.119 148.02C150.304 150.566 150.229 156.295 150.982 158.538C153.989 167.484 161.526 173.461 172.166 175.328C173.085 175.49 175.701 175.575 177.984 175.516C181.264 175.436 182.763 175.236 185.149 174.567H185.146ZM175.326 97.646C173.575 96.1904 174.619 93.9176 177.039 93.9176C179.458 93.9176 180.502 96.1904 178.753 97.646C177.58 98.6245 176.5 98.6245 175.326 97.646ZM160.071 97.1623C158.652 95.98 159.342 93.6646 161.201 93.3578C162.399 93.1585 163.756 93.7183 164.188 94.5871C165.304 96.8331 162.089 98.8418 160.071 97.1623ZM190.877 97.44C189.083 96.5711 189.384 93.9087 191.322 93.481C193.338 93.0376 194.764 93.8661 194.764 95.4829C194.764 97.3034 192.72 98.3334 190.877 97.44ZM147.134 95.2432C146.1 94.7416 145.631 93.4339 146.126 92.4352C147.235 90.2116 151.021 90.87 151.021 93.2861C151.021 95.1067 148.979 96.1345 147.134 95.2432ZM203.812 94.9633C202.395 93.7832 203.083 91.4679 204.945 91.1588C206.142 90.9618 207.496 91.5193 207.929 92.3904C209.048 94.6341 205.832 96.645 203.812 94.9633ZM134.599 91.6806C132.85 90.2251 133.894 87.9522 136.314 87.9522C138.733 87.9522 139.777 90.2251 138.029 91.6806C136.853 92.6591 135.775 92.6591 134.599 91.6806ZM215.88 91.8239C214.829 90.9506 214.887 89.2935 215.998 88.4247C217.093 87.5693 218.136 87.5603 219.411 88.3933C221.402 89.6988 220.286 92.4531 217.766 92.4531C217.136 92.4531 216.299 92.1732 215.88 91.8239ZM158.339 73.4597C164.191 60.5033 168.83 50.8006 172.002 44.8912C173.114 42.8198 174.025 41.0329 174.025 40.9187C174.025 40.8045 173.674 40.7866 173.246 40.8784C172.334 41.0777 168.647 44.6762 164.148 49.7548C156.3 58.6134 150.21 67.136 144.775 76.8611C141.646 82.4615 141.603 82.6115 142.969 83.0773C145.087 83.7961 151.973 85.5226 152.457 85.4577C152.736 85.4196 155.307 80.1752 158.339 73.4597Z" fill="#6C6A6C" />
            <path id="fireOut" d="M175.115 398.319C174.232 396.982 170.713 392.071 167.298 387.409C153.154 368.111 149.068 360.524 147.43 350.522C145.734 340.156 148.406 327.856 154.602 317.51C155.759 315.578 156.562 313.878 156.384 313.73C156.208 313.585 154.563 313.121 152.728 312.7C150.893 312.279 149.171 311.753 148.904 311.529C148.635 311.303 147.625 308.719 146.658 305.783C145.689 302.848 144.736 300.277 144.539 300.071C144.342 299.865 143.368 299.471 142.377 299.198L140.576 298.698L139.537 295.805C138.967 294.213 138.334 292.742 138.13 292.531C137.663 292.052 136.295 292.265 132.17 293.465C117.896 297.615 103.372 309.041 91.671 325.323C90.8966 326.4 89.8985 327.495 89.4512 327.757C88.1236 328.53 86.2573 328.355 85.0451 327.345C84.1071 326.566 83.9436 326.129 83.6598 323.657C83.4818 322.114 83.3519 316.615 83.3712 311.435C83.3976 303.533 83.5323 301.298 84.2057 297.552C88.1236 275.748 98.6553 257.832 116.068 243.341L122.064 238.35L120.702 232.353C111.544 191.966 109.194 158.218 113.721 132.012C118.788 102.671 132.742 74.8548 153.099 53.5258C157.062 49.3719 163.683 43.2632 166.3 41.3442C170.028 38.6145 174.917 37.3963 179.528 38.0547C184.492 38.7623 187.503 40.6074 194.781 47.3991C216.874 68.0183 232.026 94.5715 238.851 124.634C241.251 135.201 242.204 143.271 242.533 155.871C243.098 177.384 240.051 202.826 233.365 232.416L231.997 238.48L236.078 241.678C251.887 254.061 263.075 270.739 268.087 289.387C270.215 297.303 270.684 301.231 270.721 311.433C270.737 316.612 270.608 322.112 270.43 323.655C270.146 326.127 269.982 326.564 269.044 327.345C267.832 328.355 265.966 328.528 264.638 327.755C264.191 327.493 263.19 326.398 262.416 325.321C249.696 307.66 233.993 295.924 218.632 292.592C215.977 292.016 215.859 292.097 214.755 295.265C213.697 298.302 213.167 298.956 211.578 299.207C210.863 299.316 210.034 299.641 209.733 299.928C209.432 300.212 208.398 302.848 207.431 305.781C206.465 308.717 205.454 311.303 205.185 311.527C204.918 311.751 203.196 312.279 201.361 312.698C199.526 313.119 197.878 313.585 197.698 313.735C197.515 313.887 198.367 315.69 199.644 317.849C204.978 326.871 207.602 336.976 207.073 346.439C206.428 357.936 202.109 366.638 186.57 387.738C183.27 392.219 179.85 396.98 178.97 398.319C178.09 399.655 177.224 400.75 177.046 400.75C176.868 400.75 176 399.655 175.117 398.319H175.115ZM181.659 368.559C189.336 357.528 192.241 352.51 194.189 346.916C197.02 338.781 196.024 331.221 191.005 322.735C188.439 318.395 186.281 315.876 184.999 315.723C183.451 315.538 183.294 316.111 184.374 318.016C185.694 320.336 186.849 324.152 186.849 326.188C186.849 328.398 185.608 332.29 183.994 335.136C182.005 338.647 177.419 345.497 177.058 345.497C176.692 345.497 172.055 338.595 170.095 335.136C168.481 332.29 167.24 328.398 167.24 326.188C167.24 324.152 168.395 320.336 169.713 318.016C170.795 316.111 170.639 315.538 169.088 315.723C167.808 315.876 165.651 318.395 163.084 322.735C156.052 334.621 156.762 344.303 165.711 358.554C169.323 364.306 176.74 374.726 177.142 374.614C177.349 374.556 179.381 371.83 181.659 368.559ZM179.809 339.296C186.022 329.923 186.794 325.314 183.229 318.82C181.683 315.999 181.652 315.985 177.043 315.985C172.435 315.985 172.404 315.999 170.858 318.82C168.075 323.89 168.077 328.129 170.86 333.644C172.171 336.242 176.632 342.984 177.041 342.984C177.219 342.984 178.465 341.325 179.809 339.296ZM91.4377 321.237C96.6519 314.465 101.017 309.888 107.085 304.823C113.119 299.787 116.544 297.489 122.085 294.762C125.59 293.04 132.006 290.776 134.457 290.4C136.689 290.057 136.925 289.824 136.432 288.454C133.411 280.043 127.723 261.209 124.486 248.902C122.833 242.618 122.581 241.895 122.042 241.895C121.487 241.895 113.266 249.031 110.469 251.94C98.3018 264.597 90.3001 279.976 87.3034 296.466C86.1466 302.823 85.6608 309.355 85.9061 315.202C86.1899 321.958 86.7719 325.406 87.6257 325.397C87.9961 325.393 89.5065 323.745 91.4377 321.237ZM267.519 322.97C268.248 318.977 268.445 310.593 267.94 304.984C265.845 281.68 255.333 261.509 237.235 246.053C234.553 243.765 232.16 241.893 231.915 241.893C231.641 241.893 230.847 244.235 229.868 247.936C226.333 261.285 220.072 282.193 218.281 286.631C217.056 289.665 217.093 289.842 218.993 290.234C232.918 293.116 246.99 302.442 259.181 316.874C260.59 318.543 262.668 321.145 263.796 322.656C266.418 326.17 266.925 326.212 267.519 322.97ZM182.972 312.454C183.321 312.078 184.206 306.86 184.206 305.172V304.368H177.243C169.581 304.368 161.786 303.683 154.159 302.335C151.709 301.9 149.51 301.547 149.275 301.544C148.743 301.544 151.254 309.122 151.896 309.456C152.716 309.883 162.096 311.635 166.67 312.214C172.156 312.911 182.404 313.061 182.972 312.454ZM202.181 309.462C202.422 309.335 203.206 307.537 203.922 305.465C204.976 302.418 205.123 301.681 204.685 301.596C203.538 301.372 203.158 301.909 202.155 305.201C201.582 307.075 201.032 308.856 200.931 309.156C200.741 309.727 201.385 309.886 202.181 309.462ZM185.933 301.209C192.963 300.635 210.835 297.538 211.383 296.797C212.778 294.918 224.649 258.194 224.031 257.677C223.889 257.561 222.718 257.713 221.431 258.02C208.011 261.202 196.678 262.875 183.734 263.58C170.333 264.312 154.294 262.751 137.824 259.113C130.453 257.485 129.904 257.404 129.909 257.948C129.928 259.912 141.571 295.279 142.699 296.797C143.32 297.632 159.52 300.47 167.832 301.197C172.25 301.585 181.238 301.591 185.933 301.209ZM192.126 262.176C200.541 261.316 216.26 258.517 223.307 256.623C224.762 256.231 224.786 256.172 226.799 248.586C233.798 222.216 238.247 196.628 239.669 174.551C240.234 165.773 239.912 146.858 239.084 140.331C236.672 121.297 230.78 102.716 222.107 86.8012C221.119 84.9897 220.111 83.3237 219.863 83.1042C219.505 82.7818 218.639 83.0102 215.481 84.2574C206.597 87.7686 194.636 89.7884 180.625 90.1467C163.816 90.5744 147.223 88.0843 137.002 83.5969C135.818 83.0773 134.659 82.7593 134.409 82.8892C133.389 83.4132 128.129 93.8661 125.075 101.439C120.123 113.717 116.693 126.956 115 140.329C114.173 146.856 113.848 165.771 114.413 174.549C115.856 196.913 120.171 221.726 127.302 248.642C129.462 256.795 129.12 256.206 132.119 256.949C143.103 259.672 155.925 261.762 166.86 262.606C171.911 262.998 186.522 262.749 192.126 262.176ZM170.215 183.952C155.953 181.802 144.587 172.827 140.804 160.722C139.522 156.621 139.58 150.063 140.931 145.822C143.654 137.285 150.076 130.4 159.318 126.1C165.189 123.373 173.876 121.962 180.908 122.596C185.242 122.988 191.44 124.555 194.766 126.1C204.011 130.4 210.43 137.285 213.153 145.822C214.507 150.063 214.562 156.624 213.281 160.722C208.208 176.947 189.764 186.899 170.215 183.952ZM185.605 181.13C195.377 179.081 203.492 173.512 207.944 165.805C210.361 161.622 211.025 159.365 211.253 154.575C211.556 148.242 209.904 143.045 206.015 138.083C201.294 132.063 194.733 128.001 186.25 125.847C183.21 125.075 182.327 124.994 177.041 124.994C171.776 124.994 170.867 125.077 167.883 125.836C159.381 127.997 152.779 132.077 148.07 138.08C138.615 150.139 141.946 166.794 155.607 175.79C164.241 181.473 174.913 183.374 185.605 181.13ZM170.066 176.714C166.858 176.07 161.415 173.763 158.719 171.907C154.583 169.054 151.134 164.752 149.508 160.424C148.95 158.935 148.62 157.049 148.486 154.582C148.226 149.861 148.919 147.105 151.47 142.702C153.128 139.845 153.789 139.079 156.632 136.737C161.302 132.892 165.718 130.892 171.622 129.952C178.626 128.837 185.685 129.889 192.039 132.997C193.222 133.577 195.659 135.261 197.453 136.737C200.298 139.081 200.957 139.843 202.612 142.702C204.901 146.659 205.702 149.48 205.702 153.605C205.702 162.847 199.394 171.076 189.264 175.062C187.582 175.722 185.122 176.475 183.794 176.737C180.714 177.341 173.133 177.328 170.066 176.714ZM183.453 175.151C191.813 173.573 199.54 167.614 202.556 160.424C203.521 158.126 203.61 157.524 203.619 153.359C203.627 149.702 203.487 148.468 202.915 147.08C200.291 140.716 195.425 136.043 188.544 133.27C184.124 131.492 182.755 131.251 177.041 131.251C172.445 131.248 171.659 131.333 168.936 132.124C159.592 134.833 153.087 140.734 150.833 148.54C149.859 151.912 150.172 157.103 151.547 160.419C153.977 166.282 158.611 170.778 164.992 173.458C170.442 175.752 177.063 176.356 183.451 175.151H183.453ZM176 98.0916C174.129 97.4713 174.23 94.5424 176.137 94.1438C178.289 93.6959 179.675 94.7932 179.352 96.6921C179.143 97.9147 177.517 98.5932 176 98.0916ZM160.946 97.4556C160.008 97.1623 159.321 96.2509 159.321 95.2992C159.321 93.7004 162.298 92.7756 163.597 93.9691C164.244 94.5647 164.424 96.0987 163.926 96.7503C163.469 97.3482 161.841 97.7333 160.946 97.4556ZM191.368 97.4153C190.202 97.0548 189.877 96.6204 189.87 95.4067C189.86 93.575 192.438 92.7129 194.011 94.0228C194.903 94.7663 194.983 95.8254 194.213 96.7391C193.525 97.5564 192.568 97.7826 191.37 97.4153H191.368ZM147.627 95.2164C146.461 94.8581 146.136 94.4215 146.129 93.21C146.117 91.3783 148.697 90.5162 150.27 91.8261C151.163 92.5673 151.24 93.6288 150.47 94.5424C149.784 95.3575 148.825 95.5859 147.627 95.2164ZM204.69 95.2567C203.752 94.9656 203.061 94.0542 203.061 93.1025C203.061 91.5037 206.041 90.5766 207.34 91.7724C207.987 92.3658 208.167 93.8997 207.669 94.5536C207.213 95.1514 205.584 95.5344 204.69 95.2567ZM135.203 92.0545C134.104 91.591 133.675 90.4333 134.159 89.2331C134.794 87.6611 137.764 87.6723 138.55 89.2532C139.132 90.4244 138.541 91.7343 137.245 92.1463C136.078 92.5158 136.323 92.5248 135.203 92.0545ZM216.056 91.6828C214.25 90.1803 215.253 88.0574 217.771 88.0574C220.286 88.0574 221.289 90.1803 219.483 91.6828C218.309 92.6614 217.23 92.6614 216.056 91.6828ZM156.865 76.6775C161.75 65.7141 168.996 50.4938 171.921 45.0502C173.08 42.8937 174.028 40.9545 174.028 40.744C174.028 38.1443 159.809 53.8773 152.259 64.8273C149.335 69.0685 146.28 74.0553 143.7 78.7981C142.129 81.6823 141.754 82.6496 142.096 82.9273C142.565 83.308 150.186 85.4196 152.558 85.8249C152.675 85.8451 154.614 81.7293 156.865 76.6775Z" fill="#E73506" />
            <path id="borderBody" d="M175.115 398.319C174.232 396.982 170.713 392.071 167.298 387.409C153.154 368.111 149.068 360.524 147.43 350.522C145.734 340.156 148.406 327.856 154.602 317.51C155.759 315.578 156.562 313.878 156.384 313.73C156.208 313.585 154.563 313.121 152.728 312.7C150.893 312.279 149.171 311.753 148.904 311.529C148.635 311.303 147.625 308.719 146.658 305.783C145.689 302.848 144.736 300.277 144.539 300.071C144.342 299.865 143.368 299.471 142.377 299.198L140.576 298.698L139.537 295.805C138.967 294.213 138.334 292.742 138.13 292.531C137.663 292.052 136.295 292.265 132.17 293.465C117.896 297.615 103.372 309.041 91.671 325.323C90.8966 326.4 89.8985 327.495 89.4512 327.757C88.1236 328.53 86.2573 328.355 85.0451 327.345C84.1071 326.566 83.9436 326.129 83.6598 323.657C83.4818 322.114 83.3519 316.615 83.3712 311.435C83.3976 303.533 83.5323 301.298 84.2057 297.552C88.1236 275.748 98.6553 257.832 116.068 243.341L122.064 238.35L120.702 232.353C111.544 191.966 109.194 158.218 113.721 132.012C118.788 102.671 132.742 74.8548 153.099 53.5258C157.062 49.3719 163.683 43.2632 166.3 41.3442C170.028 38.6145 174.917 37.3963 179.528 38.0547C184.492 38.7623 187.503 40.6074 194.781 47.3991C216.874 68.0183 232.026 94.5715 238.851 124.634C241.251 135.201 242.204 143.271 242.533 155.871C243.098 177.384 240.051 202.826 233.365 232.416L231.997 238.48L236.078 241.678C251.887 254.061 263.075 270.739 268.087 289.387C270.215 297.303 270.684 301.231 270.721 311.433C270.737 316.612 270.608 322.112 270.43 323.655C270.146 326.127 269.982 326.564 269.044 327.345C267.832 328.355 265.966 328.528 264.638 327.755C264.191 327.493 263.19 326.398 262.416 325.321C249.696 307.66 233.993 295.924 218.632 292.592C215.977 292.016 215.859 292.097 214.755 295.265C213.697 298.302 213.167 298.956 211.578 299.207C210.863 299.316 210.034 299.641 209.733 299.928C209.432 300.212 208.398 302.848 207.431 305.781C206.465 308.717 205.454 311.303 205.185 311.527C204.918 311.751 203.196 312.279 201.361 312.698C199.526 313.119 197.878 313.585 197.698 313.735C197.515 313.887 198.367 315.69 199.644 317.849C204.978 326.871 207.602 336.976 207.073 346.439C206.428 357.936 202.109 366.638 186.57 387.738C183.27 392.219 179.85 396.98 178.97 398.319C178.09 399.655 177.224 400.75 177.046 400.75C176.868 400.75 176 399.655 175.117 398.319H175.115ZM180.293 391.097C190.543 377.048 192.708 373.967 195.257 369.775C201.777 359.058 203.812 352.891 203.817 343.846C203.819 334.992 201.255 326.347 196.176 318.068L194.273 314.969L192.169 315.175C191.012 315.289 189.923 315.499 189.749 315.643C189.576 315.786 190.019 316.664 190.731 317.593C196.346 324.916 199.233 334.148 198.184 341.435C197.068 349.187 194.057 355.164 184.006 369.567C181.697 372.878 179.314 376.374 178.71 377.337C178.104 378.3 177.356 379.088 177.043 379.088C176.731 379.088 175.826 378.076 175.009 376.811C174.198 375.561 171.704 371.911 169.465 368.7C160.057 355.22 156.875 348.762 155.865 341.103C154.919 333.922 157.822 324.806 163.359 317.593C164.071 316.664 164.511 315.786 164.34 315.643C164.167 315.499 163.077 315.289 161.92 315.175L159.814 314.969L157.914 318.068C154.424 323.751 151.971 330.117 150.823 336.468C150.112 340.414 150.112 348.029 150.823 351.399C152.257 358.18 155.682 365.357 161.863 374.538C165.073 379.301 176.748 395.101 177.06 395.101C177.231 395.101 178.686 393.298 180.293 391.097ZM181.659 368.559C189.336 357.528 192.241 352.51 194.189 346.916C197.02 338.781 196.024 331.221 191.005 322.735C188.439 318.395 186.281 315.876 184.999 315.723C183.451 315.538 183.294 316.111 184.374 318.016C185.694 320.336 186.849 324.152 186.849 326.19C186.849 328.398 185.608 332.29 183.994 335.136C182.005 338.647 177.419 345.497 177.058 345.497C176.692 345.497 172.055 338.595 170.095 335.136C168.481 332.29 167.24 328.398 167.24 326.19C167.24 324.152 168.395 320.336 169.713 318.016C170.795 316.111 170.639 315.538 169.088 315.723C167.808 315.876 165.651 318.395 163.084 322.735C156.052 334.621 156.762 344.303 165.711 358.554C169.323 364.306 176.74 374.726 177.142 374.614C177.349 374.556 179.381 371.83 181.659 368.559ZM179.809 339.296C186.022 329.923 186.794 325.314 183.229 318.82C181.683 315.999 181.654 315.985 177.043 315.985C172.435 315.985 172.404 315.999 170.858 318.82C168.077 323.89 168.077 328.129 170.86 333.644C172.171 336.242 176.632 342.984 177.041 342.984C177.219 342.984 178.465 341.325 179.809 339.296ZM91.4377 321.237C96.6519 314.465 101.017 309.888 107.085 304.823C113.119 299.787 116.544 297.489 122.088 294.764C125.59 293.04 132.006 290.776 134.457 290.4C136.689 290.057 136.925 289.824 136.434 288.454C133.411 280.043 127.723 261.209 124.486 248.902C122.833 242.618 122.581 241.895 122.042 241.895C121.489 241.895 113.266 249.031 110.469 251.94C98.3018 264.597 90.3001 279.976 87.3034 296.466C86.1466 302.823 85.6608 309.355 85.9061 315.202C86.1899 321.958 86.7719 325.406 87.6257 325.397C87.9961 325.393 89.5065 323.745 91.4377 321.237ZM267.519 322.97C268.248 318.977 268.445 310.593 267.94 304.984C265.845 281.68 255.333 261.509 237.235 246.053C234.556 243.765 232.16 241.893 231.915 241.893C231.641 241.893 230.847 244.235 229.868 247.936C226.333 261.285 220.072 282.193 218.283 286.631C217.056 289.665 217.093 289.842 218.993 290.234C232.918 293.116 246.99 302.445 259.181 316.874C260.59 318.543 262.668 321.145 263.796 322.656C266.418 326.17 266.925 326.212 267.519 322.97ZM182.972 312.454C183.321 312.078 184.206 306.86 184.206 305.172V304.368H177.245C169.581 304.368 161.786 303.683 154.159 302.335C151.709 301.9 149.51 301.547 149.275 301.544C148.743 301.544 151.254 309.122 151.896 309.456C152.716 309.883 162.096 311.635 166.67 312.214C172.156 312.911 182.404 313.061 182.972 312.454ZM202.181 309.465C202.424 309.335 203.206 307.537 203.922 305.465C204.976 302.418 205.123 301.681 204.687 301.596C203.538 301.372 203.16 301.909 202.155 305.201C201.582 307.075 201.032 308.856 200.931 309.158C200.741 309.727 201.385 309.886 202.181 309.462V309.465ZM185.933 301.209C192.963 300.635 210.835 297.538 211.385 296.797C212.778 294.918 224.649 258.194 224.031 257.677C223.889 257.561 222.72 257.713 221.431 258.02C208.011 261.202 196.678 262.875 183.734 263.58C170.333 264.312 154.294 262.751 137.824 259.113C130.453 257.485 129.904 257.404 129.909 257.948C129.928 259.912 141.571 295.279 142.699 296.797C143.32 297.632 159.52 300.47 167.832 301.197C172.25 301.587 181.238 301.591 185.933 301.209ZM192.126 262.176C200.541 261.316 216.26 258.517 223.307 256.623C224.762 256.231 224.786 256.172 226.799 248.586C233.798 222.216 238.247 196.628 239.669 174.551C240.234 165.773 239.912 146.858 239.084 140.331C236.672 121.297 230.78 102.716 222.107 86.8012C221.121 84.9897 220.111 83.3259 219.863 83.1042C219.505 82.7818 218.639 83.0102 215.481 84.2574C206.597 87.7686 194.636 89.7884 180.625 90.1467C163.816 90.5744 147.223 88.0843 137.002 83.5969C135.821 83.0773 134.659 82.7593 134.409 82.8892C133.389 83.4132 128.129 93.8661 125.075 101.439C120.123 113.717 116.693 126.956 115 140.329C114.173 146.856 113.848 165.771 114.416 174.551C115.856 196.913 120.171 221.726 127.302 248.642C129.462 256.795 129.12 256.206 132.119 256.949C143.103 259.672 155.925 261.762 166.86 262.606C171.911 262.998 186.522 262.749 192.126 262.176ZM170.215 183.952C155.953 181.802 144.587 172.827 140.804 160.722C139.522 156.621 139.58 150.063 140.931 145.822C143.654 137.285 150.076 130.4 159.318 126.1C165.189 123.373 173.876 121.962 180.908 122.596C185.242 122.988 191.44 124.555 194.766 126.1C204.011 130.4 210.43 137.285 213.153 145.822C214.507 150.063 214.562 156.624 213.281 160.722C208.208 176.947 189.764 186.899 170.215 183.952ZM185.605 181.13C195.377 179.081 203.492 173.512 207.944 165.805C210.361 161.622 211.025 159.365 211.253 154.575C211.556 148.242 209.904 143.045 206.015 138.083C201.296 132.063 194.733 128.001 186.25 125.847C183.21 125.075 182.327 124.994 177.041 124.994C171.776 124.994 170.867 125.077 167.883 125.836C159.381 127.997 152.779 132.077 148.07 138.08C138.615 150.139 141.946 166.794 155.607 175.79C164.241 181.473 174.913 183.374 185.605 181.13ZM170.066 176.714C166.858 176.07 161.415 173.765 158.719 171.907C154.583 169.054 151.134 164.752 149.508 160.424C148.95 158.935 148.62 157.049 148.486 154.582C148.226 149.861 148.919 147.105 151.47 142.702C153.128 139.845 153.789 139.079 156.632 136.737C161.302 132.892 165.718 130.892 171.622 129.952C178.626 128.837 185.685 129.889 192.039 132.997C193.222 133.577 195.659 135.261 197.453 136.737C200.298 139.081 200.957 139.843 202.612 142.702C204.901 146.659 205.702 149.48 205.702 153.607C205.702 162.847 199.394 171.076 189.264 175.062C187.585 175.722 185.122 176.475 183.794 176.737C180.714 177.341 173.133 177.328 170.066 176.714ZM183.453 175.151C191.813 173.573 199.543 167.614 202.556 160.424C203.521 158.126 203.612 157.524 203.619 153.359C203.627 149.702 203.487 148.468 202.915 147.08C200.291 140.716 195.425 136.043 188.544 133.27C184.124 131.492 182.758 131.251 177.043 131.251C172.445 131.248 171.661 131.333 168.936 132.124C159.592 134.833 153.087 140.734 150.833 148.54C149.859 151.912 150.172 157.103 151.547 160.419C153.977 166.282 158.613 170.778 164.992 173.458C170.444 175.752 177.063 176.356 183.453 175.151ZM176 98.0916C174.129 97.4713 174.23 94.5424 176.139 94.1438C178.292 93.6959 179.675 94.7932 179.352 96.6921C179.143 97.9147 177.517 98.5932 176 98.0916ZM160.946 97.4556C160.008 97.1623 159.321 96.2509 159.321 95.2992C159.321 93.7004 162.298 92.7756 163.597 93.9691C164.244 94.5647 164.424 96.0987 163.926 96.7503C163.469 97.3482 161.841 97.7333 160.946 97.4556ZM191.37 97.4153C190.204 97.0548 189.877 96.6204 189.87 95.4067C189.86 93.575 192.438 92.7129 194.014 94.0228C194.903 94.7663 194.983 95.8255 194.213 96.7413C193.525 97.5564 192.568 97.7826 191.37 97.4153ZM147.627 95.2164C146.461 94.8581 146.136 94.4215 146.129 93.21C146.117 91.3783 148.697 90.5162 150.27 91.8261C151.163 92.5696 151.24 93.6288 150.47 94.5424C149.784 95.3597 148.825 95.5859 147.627 95.2164ZM204.69 95.2567C203.752 94.9656 203.064 94.0542 203.064 93.1025C203.064 91.5037 206.041 90.5766 207.34 91.7724C207.987 92.3658 208.167 93.8997 207.669 94.5536C207.213 95.1514 205.584 95.5344 204.69 95.2567ZM135.203 92.0545C134.104 91.591 133.675 90.4333 134.159 89.2331C134.794 87.6611 137.764 87.6723 138.55 89.2532C139.132 90.4244 138.541 91.7343 137.245 92.1463C136.078 92.5158 136.323 92.5248 135.203 92.0545ZM216.056 91.6828C214.25 90.1803 215.253 88.0597 217.771 88.0597C220.286 88.0597 221.289 90.1803 219.483 91.6828C218.309 92.6614 217.23 92.6614 216.056 91.6828ZM187.994 86.958C190.95 86.6982 194.451 86.3422 195.772 86.1675C198.872 85.7533 206.926 84.0268 207.335 83.6864C208.037 83.102 202.107 69.9217 197.789 62.4716C193.263 54.6588 188.321 48.2411 183.737 44.2216C180.581 41.4561 178.45 40.4932 176.089 40.7619C175.18 40.8672 174.34 40.8202 174.22 40.659C173.951 40.294 172.943 40.5895 171.954 41.324C171.538 41.6308 170.312 42.4548 169.227 43.1535C166.796 44.721 159.321 51.5552 154.965 56.1927C148.669 62.8993 137.074 78.2741 137.074 79.9177C137.074 80.2111 137.875 80.7283 139.029 81.1762C140.104 81.5949 141.336 82.2399 141.764 82.6116C142.858 83.5633 152.651 86.1496 153.063 85.5965C153.171 85.4509 154.838 85.5831 156.762 85.8921C159.782 86.378 164.378 86.837 170.069 87.2222C174.292 87.5088 183.224 87.3767 187.996 86.958H187.994Z" fill="#585657" />
            <path id="shadowUpRigth" d="M174.79 397.687C173.686 396.003 170.377 391.377 167.438 387.407C155.677 371.506 151.276 364.04 148.733 355.656C145.232 344.111 147.444 329.835 154.621 317.674C155.754 315.755 156.68 314.031 156.68 313.84C156.68 313.65 155.961 313.336 155.078 313.142C149.587 311.932 149.046 311.76 148.683 311.099C148.479 310.725 147.521 308.038 146.557 305.132L144.804 299.845L140.672 298.533L139.51 295.407C138.666 293.136 138.166 292.251 137.677 292.173C137.307 292.115 135.537 292.446 133.74 292.91C125.065 295.151 117.658 299.146 109.327 306.072C102.826 311.478 96.8251 317.985 91.3271 325.599C89.6532 327.916 88.429 328.483 86.339 327.909C84.3981 327.374 84.0566 326.447 83.5107 320.222C82.2432 305.799 84.5617 290.816 90.0428 277.994C96.231 263.522 107.302 249.419 119.12 240.948C121.239 239.432 121.97 238.706 121.977 238.124C121.982 237.692 121.559 235.502 121.039 233.256C114.089 203.25 110.979 175.973 111.84 152.573C112.258 141.186 113.312 133.062 115.623 123.413C121.741 97.8811 133.505 75.2824 150.463 56.504C157.659 48.5322 166.437 40.8605 170.069 39.3713C175.99 36.9395 182.58 37.721 187.621 41.4471C198.167 49.2465 212.22 65.396 220.748 79.5146C231.559 97.4175 239.185 119.965 241.526 140.956C242.682 151.31 242.603 170.523 241.35 183.511C239.866 198.91 236.932 216.49 233.048 233.256C232.528 235.502 232.105 237.692 232.107 238.124C232.112 238.708 232.798 239.389 234.796 240.791C239.84 244.333 246.571 250.892 251.48 257.05C265.944 275.195 272.565 297.082 270.588 320.202C270.059 326.398 269.698 327.372 267.748 327.909C265.437 328.543 264.511 327.988 261.824 324.347C252.837 312.17 242.156 302.579 231.525 297.135C226.742 294.686 218.208 291.884 216.409 292.173C215.921 292.251 215.421 293.136 214.577 295.407L213.415 298.533L209.283 299.845L207.53 305.132C206.566 308.038 205.608 310.725 205.404 311.099C205.041 311.76 204.5 311.932 199.009 313.142C198.126 313.336 197.407 313.65 197.407 313.84C197.407 314.031 198.333 315.755 199.466 317.674C206.657 329.862 208.86 344.095 205.346 355.681C202.811 364.038 198.4 371.521 186.649 387.407C183.71 391.377 180.401 396.005 179.297 397.687C178.191 399.371 177.176 400.748 177.043 400.748C176.909 400.748 175.896 399.371 174.79 397.687ZM179.987 391.937C194.817 371.853 199.29 364.716 202.123 356.612C205.729 346.298 204.605 334.184 198.975 322.636C196.551 317.665 194.567 314.725 193.636 314.725C192.239 314.725 189.11 315.41 189.11 315.717C189.11 315.887 189.598 316.617 190.192 317.338C191.823 319.315 194.649 324.152 195.709 326.781C197.499 331.221 197.915 333.429 197.905 338.43C197.895 342.476 197.758 343.566 196.924 346.184C194.976 352.286 191.678 358.137 183.956 369.195C181.666 372.478 179.299 375.937 178.701 376.887C178.102 377.838 177.356 378.615 177.043 378.615C176.733 378.615 175.988 377.838 175.389 376.887C174.788 375.937 172.423 372.478 170.131 369.195C162.409 358.137 159.111 352.286 157.166 346.184C156.331 343.566 156.192 342.476 156.184 338.43C156.172 333.427 156.588 331.221 158.38 326.779C159.431 324.172 161.781 320.135 163.707 317.625C164.407 316.715 164.977 315.844 164.977 315.688C164.977 315.405 161.788 314.727 160.453 314.727C158.981 314.727 154.51 322.815 152.322 329.432C150.391 335.274 149.77 339.654 150.02 345.651C150.256 351.325 150.79 353.757 152.974 359.149C155.735 365.97 159.64 372.213 169.968 386.307C177.123 396.073 176.644 395.47 177.142 395.331C177.375 395.267 178.657 393.739 179.987 391.937ZM181.659 368.554C189.336 357.524 192.241 352.506 194.189 346.912C197.02 338.777 196.024 331.217 191.005 322.732C188.436 318.393 186.281 315.873 184.999 315.719C183.451 315.533 183.292 316.109 184.374 318.012C185.694 320.334 186.849 324.148 186.849 326.185C186.849 328.395 185.608 332.285 183.994 335.133C182.005 338.645 177.419 345.492 177.058 345.492C176.692 345.492 172.055 338.593 170.095 335.133C168.481 332.285 167.24 328.395 167.24 326.185C167.24 324.148 168.395 320.334 169.713 318.012C170.795 316.109 170.639 315.533 169.088 315.719C167.808 315.873 165.651 318.393 163.082 322.732C156.052 334.618 156.762 344.299 165.711 358.549C169.323 364.302 176.74 374.721 177.142 374.609C177.349 374.553 179.381 371.828 181.659 368.554ZM179.809 339.292C186.022 329.92 186.794 325.31 183.229 318.816C181.683 315.997 181.652 315.981 177.043 315.981C172.435 315.981 172.404 315.997 170.858 318.816C168.075 323.885 168.077 328.127 170.86 333.642C172.171 336.24 176.632 342.982 177.041 342.982C177.219 342.982 178.462 341.32 179.809 339.292ZM91.4377 321.232C96.6519 314.463 101.017 309.883 107.085 304.818C113.119 299.782 116.544 297.487 122.085 294.759C125.59 293.035 132.006 290.774 134.457 290.397C136.689 290.055 136.925 289.822 136.432 288.449C133.411 280.038 127.723 261.204 124.486 248.897C122.833 242.614 122.581 241.89 122.042 241.89C121.487 241.89 113.264 249.027 110.469 251.938C98.3018 264.592 90.3001 279.974 87.3034 296.461C86.1466 302.821 85.6608 309.353 85.9061 315.197C86.1899 321.955 86.7719 325.404 87.6257 325.393C87.9961 325.388 89.5065 323.74 91.4377 321.234V321.232ZM267.519 322.967C268.248 318.973 268.445 310.591 267.94 304.979C265.846 281.675 255.333 261.504 237.235 246.049C234.553 243.76 232.16 241.888 231.915 241.888C231.641 241.888 230.847 244.233 229.868 247.932C226.333 261.282 220.072 282.19 218.281 286.626C217.056 289.661 217.093 289.838 218.993 290.232C232.918 293.111 246.99 302.44 259.181 316.87C260.59 318.54 262.668 321.142 263.796 322.652C266.418 326.165 266.925 326.208 267.519 322.967ZM183.677 312.763C184.28 312.223 185.317 304.393 184.819 304.135C184.612 304.03 181.798 303.976 178.571 304.019C171.473 304.115 163.659 303.457 154.982 302.035C150.682 301.329 148.647 301.112 148.541 301.35C148.296 301.905 150.941 309.467 151.478 309.745C152.81 310.432 165.814 312.691 171.122 313.157C175.264 313.52 183.107 313.274 183.677 312.763ZM201.856 309.991C203.107 309.628 202.98 309.877 204.935 303.972C205.38 302.63 205.654 301.419 205.548 301.276C205.267 300.897 203.155 301.224 202.657 301.724C202.215 302.167 200.067 308.811 200.053 309.78C200.043 310.423 200.276 310.45 201.856 309.991ZM188.179 301.063C192.806 300.599 198.595 299.693 206.592 298.174C209.981 297.532 211.186 297.171 211.554 296.685C212.528 295.4 220.777 270.768 223.286 261.654C223.966 259.182 224.192 257.789 223.949 257.585C223.704 257.382 222.355 257.59 220.012 258.197C213.014 260.004 204.319 261.504 193.225 262.816C186.43 263.62 167.95 263.622 160.829 262.821C153.654 262.015 141.97 260.028 135.751 258.562C132.519 257.798 130.335 257.426 130.118 257.606C129.897 257.785 130.154 259.316 130.799 261.654C133.31 270.781 141.557 295.4 142.533 296.69C142.913 297.189 144.337 297.59 149.003 298.506C157.719 300.214 162.183 300.801 173.082 301.668C175.528 301.862 183.292 301.551 188.179 301.063ZM189.939 262.463C199.317 261.634 207.398 260.313 219.086 257.695C221.782 257.093 224.209 256.419 224.481 256.202C225.065 255.729 226.398 251.038 229.216 239.528C234.82 216.645 238.072 197.21 239.695 176.905C240.297 169.385 240.289 151.115 239.683 144.881C237.887 126.378 233.105 109.028 225.337 92.8226C223.141 88.2388 219.983 82.719 219.558 82.719C219.361 82.719 217.816 83.2654 216.126 83.9327C197.094 91.4409 164.251 92.209 143.103 85.639C141.134 85.0254 138.55 84.1186 137.365 83.6214C136.177 83.1266 134.938 82.719 134.609 82.719C133.312 82.719 126.58 96.5599 122.975 106.639C116.424 124.956 113.93 139.784 113.925 160.421C113.923 183.723 117.15 207.442 124.43 237.651C127.516 250.447 128.983 255.704 129.601 256.186C130.198 256.647 133.606 257.503 140.652 258.96C149.027 260.693 157.445 261.943 164.975 262.574C170.324 263.02 184.316 262.96 189.939 262.463ZM171.983 184.09C159.058 182.521 147.856 175.404 142.904 165.619C140.65 161.165 140.277 159.418 140.277 153.357C140.277 146.903 140.806 144.879 143.846 139.702C148.406 131.931 156.564 126.286 167.048 123.644C170.187 122.851 170.939 122.788 177.041 122.788C183.143 122.788 183.898 122.851 187.034 123.644C197.518 126.284 205.676 131.931 210.238 139.702C213.276 144.876 213.805 146.903 213.807 153.357C213.807 159.418 213.434 161.165 211.181 165.619C204.798 178.235 188.193 186.059 171.983 184.09ZM185.856 181.307C198.213 178.539 207.739 170.321 210.851 159.75C211.821 156.458 211.741 150.193 210.683 146.67C207.458 135.924 197.155 127.603 184.124 125.225C182.496 124.927 179.617 124.723 177.043 124.723C167.635 124.723 159.458 127.504 152.877 132.943C145.6 138.954 141.826 147.019 142.5 155.128C143.606 168.467 155.054 179.249 170.822 181.8C174.578 182.409 182.039 182.165 185.858 181.309L185.856 181.307ZM171.197 176.699C165.545 175.698 161.209 173.738 157.043 170.31C147.945 162.817 145.922 151.811 151.884 142.221C153.072 140.311 154.275 139.014 156.855 136.869C160.672 133.698 163.679 132.095 168.181 130.834C170.939 130.062 171.695 129.99 177.041 129.99C182.387 129.99 183.145 130.062 185.904 130.834C190.406 132.095 193.412 133.698 197.227 136.869C199.807 139.014 201.012 140.311 202.2 142.221C206.941 149.85 206.676 158.455 201.476 165.746C199.591 168.391 195.004 172.26 192.032 173.718C185.634 176.855 178.135 177.928 171.197 176.699ZM184.018 175.163C193.306 173.046 200.791 166.653 203.302 158.695C204.298 155.538 204.211 150.351 203.112 147.393C200.748 141.029 195.389 135.787 188.475 133.073C184.309 131.439 181.394 130.984 176.098 131.143C168.799 131.363 163.652 133.163 158.44 137.326C150.97 143.289 148.171 151.953 151.184 159.794C153.832 166.687 160.285 172.466 167.673 174.56C172.871 176.036 179.167 176.269 184.016 175.163H184.018ZM175.353 97.5922C174.367 96.7726 174.737 94.9319 176.004 94.3453C176.935 93.9131 177.147 93.9131 178.078 94.3453C178.862 94.708 179.143 95.1021 179.23 95.953C179.369 97.319 178.571 98.1028 177.041 98.1028C176.449 98.1028 175.689 97.8721 175.353 97.5922ZM160.355 97.0816C159.301 96.4121 159.183 95.1895 160.078 94.2423C162.094 92.1105 165.509 94.5468 163.633 96.7771C162.976 97.5586 161.343 97.7109 160.355 97.0816ZM190.449 96.7771C189.24 95.3395 190.295 93.3936 192.287 93.3936C193.552 93.3936 194.879 94.8401 194.576 95.8903C194.105 97.525 191.541 98.0759 190.449 96.7771ZM146.708 94.5781C145.499 93.1405 146.555 91.1946 148.543 91.1946C149.811 91.1946 151.139 92.6434 150.836 93.6936C150.362 95.3283 147.8 95.8769 146.708 94.5781ZM204.096 94.8849C203.045 94.2154 202.924 92.9928 203.821 92.0455C205.834 89.9138 209.252 92.3478 207.376 94.5781C206.717 95.3596 205.084 95.5119 204.096 94.8849ZM134.652 91.5395C133.661 90.6281 133.99 88.9778 135.28 88.3799C136.21 87.9477 136.422 87.9477 137.353 88.3799C138.62 88.9666 138.991 90.8072 138.007 91.6268C137.177 92.3165 135.448 92.2717 134.652 91.5395ZM215.864 91.6492C215.164 90.9461 215.267 89.4211 216.066 88.6866C216.922 87.9007 218.581 87.8716 219.404 88.6307C220.13 89.298 220.236 91.2125 219.577 91.7612C218.925 92.3031 216.443 92.2292 215.864 91.6492ZM187.991 86.9557C190.947 86.696 194.446 86.3399 195.769 86.163C198.869 85.751 206.924 84.0245 207.33 83.6841C208.033 83.0997 202.104 69.9171 197.787 62.4693C193.261 54.6543 188.316 48.2366 183.732 44.2193C180.56 41.4382 178.45 40.4887 176.05 40.7642C175.083 40.8739 174.451 40.8358 174.571 40.6746C174.687 40.5179 174.484 40.4395 174.121 40.4955C173.756 40.5537 173.27 40.6119 173.039 40.6253C172.808 40.6388 172.214 40.9702 171.719 41.362C171.223 41.7539 169.989 42.6272 168.979 43.3012C166.601 44.8844 159.114 51.7702 154.963 56.1905C148.673 62.8881 137.071 78.2696 137.071 79.911C137.071 80.2065 137.976 80.7664 139.318 81.2993C140.551 81.792 141.487 82.2958 141.393 82.4212C141.155 82.7459 143.106 83.449 147.252 84.5373C151.725 85.7107 153.284 85.9906 153.284 85.6211C153.284 85.4621 154.854 85.5853 156.774 85.892C159.78 86.3757 164.378 86.8348 170.064 87.2199C174.29 87.5066 183.222 87.3744 187.991 86.9557Z" fill="#C60915" />
            <path id="borderBeforeFireRigth" d="M174.79 397.687C173.686 396.003 170.377 391.377 167.438 387.407C155.677 371.506 151.276 364.04 148.733 355.656C145.232 344.111 147.444 329.835 154.621 317.674C155.754 315.755 156.68 314.031 156.68 313.84C156.68 313.65 155.961 313.336 155.078 313.142C149.587 311.932 149.046 311.76 148.683 311.099C148.479 310.725 147.521 308.038 146.557 305.132L144.804 299.845L140.672 298.533L139.51 295.407C138.666 293.136 138.166 292.251 137.677 292.173C137.307 292.115 135.537 292.446 133.74 292.91C125.065 295.151 117.658 299.146 109.327 306.072C102.826 311.478 96.8251 317.985 91.3271 325.599C89.6532 327.916 88.429 328.483 86.339 327.909C84.3981 327.374 84.0566 326.447 83.5107 320.222C82.2432 305.799 84.5617 290.816 90.0428 277.994C96.231 263.522 107.302 249.419 119.12 240.948C121.239 239.432 121.97 238.706 121.977 238.124C121.982 237.692 121.559 235.502 121.039 233.256C114.089 203.25 110.979 175.973 111.84 152.573C112.258 141.186 113.312 133.062 115.623 123.413C121.741 97.8811 133.505 75.2824 150.463 56.504C157.659 48.5322 166.437 40.8605 170.069 39.3713C175.99 36.9395 182.58 37.721 187.621 41.4471C198.167 49.2465 212.22 65.396 220.748 79.5146C231.559 97.4175 239.185 119.965 241.526 140.956C242.682 151.31 242.603 170.523 241.35 183.511C239.866 198.91 236.932 216.49 233.048 233.256C232.528 235.502 232.105 237.692 232.107 238.124C232.112 238.708 232.798 239.389 234.796 240.791C239.84 244.333 246.571 250.892 251.48 257.05C265.944 275.195 272.565 297.082 270.588 320.202C270.059 326.398 269.698 327.372 267.748 327.909C265.437 328.543 264.511 327.988 261.824 324.347C252.837 312.17 242.156 302.579 231.525 297.135C226.742 294.686 218.208 291.884 216.409 292.173C215.921 292.251 215.421 293.136 214.577 295.407L213.415 298.533L209.283 299.845L207.53 305.132C206.566 308.038 205.608 310.725 205.404 311.099C205.041 311.76 204.5 311.932 199.009 313.142C198.126 313.336 197.407 313.65 197.407 313.84C197.407 314.031 198.333 315.755 199.466 317.674C206.657 329.862 208.86 344.095 205.346 355.681C202.811 364.038 198.4 371.521 186.649 387.407C183.71 391.377 180.401 396.005 179.297 397.687C178.191 399.371 177.176 400.748 177.043 400.748C176.909 400.748 175.896 399.371 174.79 397.687ZM179.987 391.937C194.817 371.853 199.29 364.716 202.123 356.612C205.729 346.298 204.605 334.184 198.975 322.636C196.551 317.665 194.567 314.725 193.636 314.725C192.239 314.725 189.11 315.41 189.11 315.717C189.11 315.887 189.598 316.617 190.192 317.338C191.823 319.315 194.649 324.152 195.709 326.781C197.499 331.221 197.915 333.429 197.905 338.43C197.895 342.476 197.758 343.566 196.924 346.184C194.976 352.286 191.678 358.137 183.956 369.195C181.666 372.478 179.299 375.937 178.701 376.887C178.102 377.838 177.356 378.615 177.043 378.615C176.733 378.615 175.988 377.838 175.389 376.887C174.788 375.937 172.423 372.478 170.131 369.195C162.409 358.137 159.111 352.286 157.166 346.184C156.331 343.566 156.192 342.476 156.184 338.43C156.172 333.427 156.588 331.221 158.38 326.779C159.431 324.172 161.781 320.135 163.707 317.625C164.407 316.715 164.977 315.844 164.977 315.688C164.977 315.405 161.788 314.727 160.453 314.727C158.981 314.727 154.51 322.815 152.322 329.432C150.391 335.274 149.77 339.654 150.02 345.651C150.256 351.325 150.79 353.757 152.974 359.149C155.735 365.97 159.64 372.213 169.968 386.307C177.123 396.073 176.644 395.47 177.142 395.331C177.375 395.267 178.657 393.739 179.987 391.937ZM179.331 372.31C180.281 370.944 182.385 367.916 184.006 365.585C190.281 356.568 193.953 349.59 195.312 344.108C196.469 339.444 195.921 332.869 193.958 327.916C192.102 323.227 187.217 315.907 185.673 315.499C184.901 315.296 183.078 315.634 183.078 315.981C183.078 316.115 183.578 317.125 184.194 318.222C187.183 323.57 187.234 328.234 184.364 333.955C183.275 336.125 177.342 345.465 177.043 345.479C176.839 345.488 175.321 343.159 171.582 337.104C166.868 329.468 166.418 324.439 169.893 318.222C170.507 317.123 171.009 316.115 171.009 315.981C171.009 315.634 169.184 315.293 168.433 315.499C166.973 315.896 162.353 322.611 160.501 327.027C158.89 330.87 158.188 334.332 158.195 338.385C158.209 346.437 161.165 352.819 172.241 368.725C176.712 375.145 176.647 375.062 177.159 374.918C177.404 374.851 178.381 373.676 179.331 372.31ZM179.011 341.074C183.422 334.755 185.716 329.658 185.716 326.185C185.716 322.627 182.787 316.171 181.002 315.8C180.589 315.714 178.551 315.683 176.478 315.735L172.707 315.826L171.558 317.257C170.028 319.165 168.727 322.546 168.489 325.245C168.152 329.038 169.6 332.787 173.946 339.372C177.084 344.128 176.918 344.072 179.011 341.074ZM91.1395 322.005C97.3277 313.795 105.837 305.373 112.903 300.467C119.226 296.078 125.541 293.082 132.454 291.194C135.128 290.464 136.929 289.806 136.994 289.531C137.057 289.282 136.42 287.184 135.58 284.871C133.574 279.347 127.814 260.19 125.063 249.896C123.451 243.865 122.732 241.709 122.309 241.642C121.515 241.514 114.469 247.412 110.519 251.51C96.7698 265.779 88.6575 282.419 86.1298 301.54C85.1557 308.903 85.7041 324.313 86.986 325.619C87.6594 326.304 88.3641 325.69 91.1419 322.005H91.1395ZM267.863 322.958C268.987 316.147 268.691 305.022 267.163 296.73C264.022 279.667 256.081 264.442 243.572 251.504C239.522 247.312 232.593 241.512 231.792 241.642C231.355 241.711 230.669 243.745 229.043 249.804C225.251 263.938 219.156 283.939 217.523 287.616C216.587 289.721 216.744 289.86 221.549 291.172C231.352 293.848 239.128 298.194 248.25 306.092C252.962 310.172 258.573 316.238 262.63 321.633C264.124 323.619 265.615 325.419 265.944 325.632C266.928 326.27 267.43 325.569 267.863 322.958ZM183.679 312.763C184.283 312.223 185.319 304.393 184.824 304.137C184.615 304.03 181.803 303.976 178.575 304.021C171.478 304.115 163.662 303.459 154.987 302.035C150.684 301.329 148.649 301.112 148.543 301.35C148.298 301.905 150.944 309.467 151.482 309.745C152.812 310.432 165.819 312.694 171.127 313.157C175.266 313.522 183.109 313.274 183.681 312.763H183.679ZM201.859 309.991C203.112 309.628 202.982 309.879 204.937 303.972C205.382 302.633 205.659 301.419 205.553 301.278C205.269 300.897 203.16 301.224 202.66 301.724C202.217 302.169 200.07 308.811 200.055 309.783C200.045 310.423 200.279 310.45 201.859 309.991ZM188.181 301.063C192.809 300.599 198.6 299.693 206.597 298.174C209.983 297.532 211.188 297.171 211.556 296.687C212.533 295.4 220.782 270.77 223.29 261.654C223.969 259.184 224.197 257.789 223.952 257.585C223.706 257.382 222.36 257.592 220.015 258.197C213.016 260.006 204.322 261.504 193.23 262.816C186.433 263.62 167.952 263.625 160.831 262.823C153.657 262.015 141.973 260.031 135.753 258.562C132.521 257.798 130.337 257.429 130.121 257.606C129.899 257.785 130.159 259.319 130.801 261.654C133.312 270.781 141.559 295.4 142.536 296.69C142.918 297.191 144.339 297.59 149.005 298.506C157.721 300.214 162.185 300.801 173.085 301.67C175.531 301.862 183.297 301.551 188.181 301.063ZM189.942 262.463C199.319 261.634 207.4 260.313 219.089 257.695C221.785 257.093 224.214 256.421 224.483 256.202C225.068 255.729 226.4 251.04 229.219 239.528C234.823 216.645 238.074 197.213 239.698 176.905C240.299 169.385 240.292 151.115 239.686 144.881C237.889 126.38 233.108 109.028 225.339 92.8226C223.144 88.2388 219.986 82.719 219.563 82.719C219.363 82.719 217.819 83.2654 216.128 83.9327C197.097 91.4409 164.253 92.209 143.106 85.639C141.136 85.0254 138.553 84.1185 137.367 83.6237C136.181 83.1266 134.94 82.719 134.611 82.719C133.315 82.719 126.583 96.5599 122.978 106.641C116.426 124.956 113.932 139.787 113.93 160.421C113.925 183.723 117.153 207.444 124.435 237.654C127.518 250.447 128.986 255.707 129.606 256.186C130.2 256.649 133.608 257.505 140.655 258.963C149.032 260.693 157.447 261.943 164.977 262.574C170.326 263.022 184.321 262.96 189.942 262.463ZM171.986 184.09C159.061 182.521 147.858 175.404 142.906 165.619C140.653 161.165 140.28 159.421 140.28 153.359C140.282 146.905 140.811 144.879 143.849 139.702C148.411 131.931 156.569 126.286 167.053 123.644C170.189 122.853 170.944 122.788 177.046 122.788C183.147 122.788 183.9 122.853 187.036 123.644C197.523 126.286 205.681 131.931 210.241 139.702C213.278 144.879 213.81 146.903 213.81 153.359C213.81 159.421 213.437 161.165 211.183 165.619C204.8 178.235 188.196 186.059 171.986 184.09ZM185.86 181.307C198.215 178.539 207.742 170.323 210.854 159.752C211.823 156.458 211.744 150.193 210.685 146.67C207.46 135.924 197.157 127.603 184.126 125.225C182.498 124.927 179.619 124.723 177.046 124.723C167.637 124.723 159.462 127.504 152.88 132.943C145.602 138.956 141.831 147.019 142.502 155.13C143.608 168.467 155.056 179.249 170.824 181.802C174.581 182.409 182.041 182.165 185.86 181.309V181.307ZM171.199 176.699C165.55 175.698 161.211 173.741 157.048 170.31C147.947 162.82 145.927 151.811 151.887 142.221C153.075 140.311 154.28 139.016 156.86 136.869C160.675 133.698 163.681 132.095 168.183 130.834C170.942 130.062 171.699 129.99 177.046 129.99C182.392 129.99 183.148 130.062 185.906 130.834C190.408 132.095 193.415 133.698 197.232 136.869C199.812 139.016 201.015 140.311 202.203 142.221C206.943 149.85 206.679 158.455 201.479 165.746C199.593 168.391 195.009 172.26 192.034 173.718C185.637 176.855 178.138 177.928 171.199 176.699ZM185.17 174.874C201.373 170.377 208.754 155.43 200.931 142.955C197.515 137.512 190.495 132.932 183.455 131.555C180.331 130.944 173.799 130.937 170.728 131.539C163.248 133.008 156.136 137.827 152.757 143.719C148.943 150.372 149.008 156.653 152.966 163.377C154.58 166.12 155.383 167.063 157.954 169.217C163.688 174.021 169.862 176.056 178.008 175.823C181.235 175.734 182.849 175.519 185.173 174.874H185.17ZM175.355 97.5922C174.371 96.7726 174.742 94.9342 176.007 94.3453C176.94 93.9131 177.152 93.9131 178.082 94.3453C178.864 94.708 179.148 95.1044 179.232 95.9553C179.372 97.319 178.573 98.1028 177.046 98.1028C176.452 98.1028 175.692 97.8744 175.355 97.5922ZM160.357 97.0839C159.306 96.4143 159.186 95.1917 160.083 94.2445C162.096 92.1127 165.514 94.5468 163.638 96.7771C162.979 97.5586 161.346 97.7109 160.357 97.0839ZM190.452 96.7771C189.242 95.3395 190.298 93.3936 192.289 93.3936C193.554 93.3936 194.882 94.8424 194.579 95.8926C194.107 97.5273 191.546 98.0759 190.452 96.7771ZM146.711 94.5804C145.501 93.1428 146.557 91.1969 148.548 91.1969C149.813 91.1969 151.141 92.6434 150.838 93.6936C150.367 95.3283 147.803 95.8792 146.711 94.5804ZM204.098 94.8849C203.047 94.2154 202.929 92.9928 203.824 92.0455C205.837 89.9138 209.254 92.3501 207.378 94.5804C206.722 95.3619 205.086 95.5142 204.098 94.8849ZM134.654 91.5395C133.666 90.6303 133.993 88.9778 135.282 88.3799C136.213 87.9499 136.424 87.9499 137.355 88.3799C138.623 88.9688 138.993 90.8095 138.009 91.629C137.182 92.3187 135.45 92.2717 134.654 91.5395ZM215.868 91.6514C215.166 90.9483 215.269 89.4233 216.068 88.6889C216.924 87.9006 218.584 87.8716 219.409 88.6307C220.133 89.298 220.238 91.2125 219.579 91.7612C218.928 92.3053 216.446 92.2314 215.868 91.6514ZM189.778 87.2714C198.304 86.4787 204.175 85.3031 210.606 83.1042C215.563 81.4068 217.393 80.5872 217.393 80.0565C217.393 79.8057 216.443 78.1487 215.282 76.3729C208.353 65.7812 200.798 56.8868 191.527 48.4112C186.055 43.4065 183.908 41.895 180.957 40.9769C178.277 40.1416 173.619 40.1349 172.149 40.9612C171.627 41.2546 170.456 41.9017 169.549 42.3988C166.067 44.3067 155.631 54.3095 149.219 61.8871C143.755 68.3452 136.049 79.481 136.446 80.3454C136.559 80.5872 137.805 81.2411 139.219 81.8009C140.631 82.3585 141.843 82.9317 141.908 83.0728C142.103 83.4803 151.237 85.8585 152.613 85.8585C153.296 85.8607 155.112 86.0779 156.651 86.3466C164.669 87.7372 180.12 88.1694 189.778 87.2714Z" fill="#474547" />
        </g>
    </g>

</svg>